<?xml version="1.0" encoding="utf-8" standalone="no"?>
<!DOCTYPE svg PUBLIC "-//W3C//DTD SVG 1.1//EN"
  "http://www.w3.org/Graphics/SVG/1.1/DTD/svg11.dtd">
<!-- Created with matplotlib (http://matplotlib.org/) -->
<svg height="432pt" version="1.1" viewBox="0 0 1152 432" width="1152pt" xmlns="http://www.w3.org/2000/svg" xmlns:xlink="http://www.w3.org/1999/xlink">
 <defs>
  <style type="text/css">
*{stroke-linecap:butt;stroke-linejoin:round;stroke-miterlimit:100000;}
  </style>
 </defs>
 <g id="figure_1">
  <g id="patch_1">
   <path d="M 0 432 
L 1152 432 
L 1152 0 
L 0 0 
z
" style="fill:#ffffff;"/>
  </g>
  <g id="axes_1">
   <g id="patch_2">
    <path d="M 144 388.8 
L 1036.8 388.8 
L 1036.8 60.48 
L 144 60.48 
z
" style="fill:#ffffff;"/>
   </g>
   <g id="line2d_1">
    <path clip-path="url(#pfbfb3eaf8c)" d="M 201.1392 186.963456 
L 239.232 197.564544 
L 277.3248 186.1536 
L 315.4176 181.15584 
L 353.5104 181.112064 
L 391.6032 178.230144 
L 429.696 177.865344 
L 467.7888 191.486976 
L 505.8816 189.91104 
L 543.9744 189.903744 
L 582.0672 204.707328 
L 620.16 188.189184 
L 658.2528 188.276736 
L 696.3456 186.598656 
L 734.4384 199.300992 
L 772.5312 183.534336 
L 810.624 193.30368 
L 848.7168 195.49248 
L 886.8096 217.190784 
L 924.9024 196.667136 
L 962.9952 228.309888 
L 1001.088 202.365312 
" style="fill:none;stroke:#ff0000;stroke-linecap:square;stroke-width:1.5;"/>
    <defs>
     <path d="M 0 1.5 
C 0.397805 1.5 0.77937 1.341951 1.06066 1.06066 
C 1.341951 0.77937 1.5 0.397805 1.5 0 
C 1.5 -0.397805 1.341951 -0.77937 1.06066 -1.06066 
C 0.77937 -1.341951 0.397805 -1.5 0 -1.5 
C -0.397805 -1.5 -0.77937 -1.341951 -1.06066 -1.06066 
C -1.341951 -0.77937 -1.5 -0.397805 -1.5 0 
C -1.5 0.397805 -1.341951 0.77937 -1.06066 1.06066 
C -0.77937 1.341951 -0.397805 1.5 0 1.5 
z
" id="m9d8db7f6fa" style="stroke:#ff0000;stroke-width:0.5;"/>
    </defs>
    <g clip-path="url(#pfbfb3eaf8c)">
     <use style="fill:#ff0000;stroke:#ff0000;stroke-width:0.5;" x="201.1392" xlink:href="#m9d8db7f6fa" y="186.963456"/>
     <use style="fill:#ff0000;stroke:#ff0000;stroke-width:0.5;" x="239.232" xlink:href="#m9d8db7f6fa" y="197.564544"/>
     <use style="fill:#ff0000;stroke:#ff0000;stroke-width:0.5;" x="277.3248" xlink:href="#m9d8db7f6fa" y="186.1536"/>
     <use style="fill:#ff0000;stroke:#ff0000;stroke-width:0.5;" x="315.4176" xlink:href="#m9d8db7f6fa" y="181.15584"/>
     <use style="fill:#ff0000;stroke:#ff0000;stroke-width:0.5;" x="353.5104" xlink:href="#m9d8db7f6fa" y="181.112064"/>
     <use style="fill:#ff0000;stroke:#ff0000;stroke-width:0.5;" x="391.6032" xlink:href="#m9d8db7f6fa" y="178.230144"/>
     <use style="fill:#ff0000;stroke:#ff0000;stroke-width:0.5;" x="429.696" xlink:href="#m9d8db7f6fa" y="177.865344"/>
     <use style="fill:#ff0000;stroke:#ff0000;stroke-width:0.5;" x="467.7888" xlink:href="#m9d8db7f6fa" y="191.486976"/>
     <use style="fill:#ff0000;stroke:#ff0000;stroke-width:0.5;" x="505.8816" xlink:href="#m9d8db7f6fa" y="189.91104"/>
     <use style="fill:#ff0000;stroke:#ff0000;stroke-width:0.5;" x="543.9744" xlink:href="#m9d8db7f6fa" y="189.903744"/>
     <use style="fill:#ff0000;stroke:#ff0000;stroke-width:0.5;" x="582.0672" xlink:href="#m9d8db7f6fa" y="204.707328"/>
     <use style="fill:#ff0000;stroke:#ff0000;stroke-width:0.5;" x="620.16" xlink:href="#m9d8db7f6fa" y="188.189184"/>
     <use style="fill:#ff0000;stroke:#ff0000;stroke-width:0.5;" x="658.2528" xlink:href="#m9d8db7f6fa" y="188.276736"/>
     <use style="fill:#ff0000;stroke:#ff0000;stroke-width:0.5;" x="696.3456" xlink:href="#m9d8db7f6fa" y="186.598656"/>
     <use style="fill:#ff0000;stroke:#ff0000;stroke-width:0.5;" x="734.4384" xlink:href="#m9d8db7f6fa" y="199.300992"/>
     <use style="fill:#ff0000;stroke:#ff0000;stroke-width:0.5;" x="772.5312" xlink:href="#m9d8db7f6fa" y="183.534336"/>
     <use style="fill:#ff0000;stroke:#ff0000;stroke-width:0.5;" x="810.624" xlink:href="#m9d8db7f6fa" y="193.30368"/>
     <use style="fill:#ff0000;stroke:#ff0000;stroke-width:0.5;" x="848.7168" xlink:href="#m9d8db7f6fa" y="195.49248"/>
     <use style="fill:#ff0000;stroke:#ff0000;stroke-width:0.5;" x="886.8096" xlink:href="#m9d8db7f6fa" y="217.190784"/>
     <use style="fill:#ff0000;stroke:#ff0000;stroke-width:0.5;" x="924.9024" xlink:href="#m9d8db7f6fa" y="196.667136"/>
     <use style="fill:#ff0000;stroke:#ff0000;stroke-width:0.5;" x="962.9952" xlink:href="#m9d8db7f6fa" y="228.309888"/>
     <use style="fill:#ff0000;stroke:#ff0000;stroke-width:0.5;" x="1001.088" xlink:href="#m9d8db7f6fa" y="202.365312"/>
    </g>
   </g>
   <g id="line2d_2">
    <path clip-path="url(#pfbfb3eaf8c)" d="M 201.1392 228.915456 
L 239.232 388.8 
L 277.3248 242.413056 
L 315.4176 388.8 
L 353.5104 215.928576 
L 391.6032 214.68096 
L 429.696 209.97504 
L 467.7888 224.326272 
L 505.8816 214.155648 
L 543.9744 210.770304 
L 582.0672 214.965504 
L 620.16 214.775808 
L 658.2528 210.361728 
L 696.3456 212.032512 
L 734.4384 234.1248 
L 772.5312 208.566912 
L 810.624 210.434688 
L 848.7168 237.51744 
L 886.8096 219.985152 
L 924.9024 210.420096 
L 962.9952 212.769408 
L 1001.088 216.016128 
" style="fill:none;stroke:#008000;stroke-linecap:square;stroke-width:1.5;"/>
    <defs>
     <path d="M 0 1.5 
C 0.397805 1.5 0.77937 1.341951 1.06066 1.06066 
C 1.341951 0.77937 1.5 0.397805 1.5 0 
C 1.5 -0.397805 1.341951 -0.77937 1.06066 -1.06066 
C 0.77937 -1.341951 0.397805 -1.5 0 -1.5 
C -0.397805 -1.5 -0.77937 -1.341951 -1.06066 -1.06066 
C -1.341951 -0.77937 -1.5 -0.397805 -1.5 0 
C -1.5 0.397805 -1.341951 0.77937 -1.06066 1.06066 
C -0.77937 1.341951 -0.397805 1.5 0 1.5 
z
" id="m0da43ce94d" style="stroke:#008000;stroke-width:0.5;"/>
    </defs>
    <g clip-path="url(#pfbfb3eaf8c)">
     <use style="fill:#008000;stroke:#008000;stroke-width:0.5;" x="201.1392" xlink:href="#m0da43ce94d" y="228.915456"/>
     <use style="fill:#008000;stroke:#008000;stroke-width:0.5;" x="239.232" xlink:href="#m0da43ce94d" y="388.8"/>
     <use style="fill:#008000;stroke:#008000;stroke-width:0.5;" x="277.3248" xlink:href="#m0da43ce94d" y="242.413056"/>
     <use style="fill:#008000;stroke:#008000;stroke-width:0.5;" x="315.4176" xlink:href="#m0da43ce94d" y="388.8"/>
     <use style="fill:#008000;stroke:#008000;stroke-width:0.5;" x="353.5104" xlink:href="#m0da43ce94d" y="215.928576"/>
     <use style="fill:#008000;stroke:#008000;stroke-width:0.5;" x="391.6032" xlink:href="#m0da43ce94d" y="214.68096"/>
     <use style="fill:#008000;stroke:#008000;stroke-width:0.5;" x="429.696" xlink:href="#m0da43ce94d" y="209.97504"/>
     <use style="fill:#008000;stroke:#008000;stroke-width:0.5;" x="467.7888" xlink:href="#m0da43ce94d" y="224.326272"/>
     <use style="fill:#008000;stroke:#008000;stroke-width:0.5;" x="505.8816" xlink:href="#m0da43ce94d" y="214.155648"/>
     <use style="fill:#008000;stroke:#008000;stroke-width:0.5;" x="543.9744" xlink:href="#m0da43ce94d" y="210.770304"/>
     <use style="fill:#008000;stroke:#008000;stroke-width:0.5;" x="582.0672" xlink:href="#m0da43ce94d" y="214.965504"/>
     <use style="fill:#008000;stroke:#008000;stroke-width:0.5;" x="620.16" xlink:href="#m0da43ce94d" y="214.775808"/>
     <use style="fill:#008000;stroke:#008000;stroke-width:0.5;" x="658.2528" xlink:href="#m0da43ce94d" y="210.361728"/>
     <use style="fill:#008000;stroke:#008000;stroke-width:0.5;" x="696.3456" xlink:href="#m0da43ce94d" y="212.032512"/>
     <use style="fill:#008000;stroke:#008000;stroke-width:0.5;" x="734.4384" xlink:href="#m0da43ce94d" y="234.1248"/>
     <use style="fill:#008000;stroke:#008000;stroke-width:0.5;" x="772.5312" xlink:href="#m0da43ce94d" y="208.566912"/>
     <use style="fill:#008000;stroke:#008000;stroke-width:0.5;" x="810.624" xlink:href="#m0da43ce94d" y="210.434688"/>
     <use style="fill:#008000;stroke:#008000;stroke-width:0.5;" x="848.7168" xlink:href="#m0da43ce94d" y="237.51744"/>
     <use style="fill:#008000;stroke:#008000;stroke-width:0.5;" x="886.8096" xlink:href="#m0da43ce94d" y="219.985152"/>
     <use style="fill:#008000;stroke:#008000;stroke-width:0.5;" x="924.9024" xlink:href="#m0da43ce94d" y="210.420096"/>
     <use style="fill:#008000;stroke:#008000;stroke-width:0.5;" x="962.9952" xlink:href="#m0da43ce94d" y="212.769408"/>
     <use style="fill:#008000;stroke:#008000;stroke-width:0.5;" x="1001.088" xlink:href="#m0da43ce94d" y="216.016128"/>
    </g>
   </g>
   <g id="line2d_3">
    <path clip-path="url(#pfbfb3eaf8c)" d="M 201.1392 386.822784 
L 239.232 385.3344 
L 277.3248 383.853312 
L 315.4176 382.642176 
L 353.5104 381.226752 
L 391.6032 380.125056 
L 429.696 378.527232 
L 467.7888 377.323392 
L 505.8816 376.221696 
L 543.9744 374.616576 
L 582.0672 374.142336 
L 620.16 373.00416 
L 658.2528 372.259968 
L 696.3456 370.800768 
L 734.4384 370.618368 
L 772.5312 368.801664 
L 810.624 367.670784 
L 848.7168 367.02144 
L 886.8096 367.999104 
L 924.9024 367.006848 
L 962.9952 363.402624 
L 1001.088 363.067008 
" style="fill:none;stroke:#0000ff;stroke-linecap:square;stroke-width:1.5;"/>
    <defs>
     <path d="M 0 1.5 
C 0.397805 1.5 0.77937 1.341951 1.06066 1.06066 
C 1.341951 0.77937 1.5 0.397805 1.5 0 
C 1.5 -0.397805 1.341951 -0.77937 1.06066 -1.06066 
C 0.77937 -1.341951 0.397805 -1.5 0 -1.5 
C -0.397805 -1.5 -0.77937 -1.341951 -1.06066 -1.06066 
C -1.341951 -0.77937 -1.5 -0.397805 -1.5 0 
C -1.5 0.397805 -1.341951 0.77937 -1.06066 1.06066 
C -0.77937 1.341951 -0.397805 1.5 0 1.5 
z
" id="m49ef484be7" style="stroke:#0000ff;stroke-width:0.5;"/>
    </defs>
    <g clip-path="url(#pfbfb3eaf8c)">
     <use style="fill:#0000ff;stroke:#0000ff;stroke-width:0.5;" x="201.1392" xlink:href="#m49ef484be7" y="386.822784"/>
     <use style="fill:#0000ff;stroke:#0000ff;stroke-width:0.5;" x="239.232" xlink:href="#m49ef484be7" y="385.3344"/>
     <use style="fill:#0000ff;stroke:#0000ff;stroke-width:0.5;" x="277.3248" xlink:href="#m49ef484be7" y="383.853312"/>
     <use style="fill:#0000ff;stroke:#0000ff;stroke-width:0.5;" x="315.4176" xlink:href="#m49ef484be7" y="382.642176"/>
     <use style="fill:#0000ff;stroke:#0000ff;stroke-width:0.5;" x="353.5104" xlink:href="#m49ef484be7" y="381.226752"/>
     <use style="fill:#0000ff;stroke:#0000ff;stroke-width:0.5;" x="391.6032" xlink:href="#m49ef484be7" y="380.125056"/>
     <use style="fill:#0000ff;stroke:#0000ff;stroke-width:0.5;" x="429.696" xlink:href="#m49ef484be7" y="378.527232"/>
     <use style="fill:#0000ff;stroke:#0000ff;stroke-width:0.5;" x="467.7888" xlink:href="#m49ef484be7" y="377.323392"/>
     <use style="fill:#0000ff;stroke:#0000ff;stroke-width:0.5;" x="505.8816" xlink:href="#m49ef484be7" y="376.221696"/>
     <use style="fill:#0000ff;stroke:#0000ff;stroke-width:0.5;" x="543.9744" xlink:href="#m49ef484be7" y="374.616576"/>
     <use style="fill:#0000ff;stroke:#0000ff;stroke-width:0.5;" x="582.0672" xlink:href="#m49ef484be7" y="374.142336"/>
     <use style="fill:#0000ff;stroke:#0000ff;stroke-width:0.5;" x="620.16" xlink:href="#m49ef484be7" y="373.00416"/>
     <use style="fill:#0000ff;stroke:#0000ff;stroke-width:0.5;" x="658.2528" xlink:href="#m49ef484be7" y="372.259968"/>
     <use style="fill:#0000ff;stroke:#0000ff;stroke-width:0.5;" x="696.3456" xlink:href="#m49ef484be7" y="370.800768"/>
     <use style="fill:#0000ff;stroke:#0000ff;stroke-width:0.5;" x="734.4384" xlink:href="#m49ef484be7" y="370.618368"/>
     <use style="fill:#0000ff;stroke:#0000ff;stroke-width:0.5;" x="772.5312" xlink:href="#m49ef484be7" y="368.801664"/>
     <use style="fill:#0000ff;stroke:#0000ff;stroke-width:0.5;" x="810.624" xlink:href="#m49ef484be7" y="367.670784"/>
     <use style="fill:#0000ff;stroke:#0000ff;stroke-width:0.5;" x="848.7168" xlink:href="#m49ef484be7" y="367.02144"/>
     <use style="fill:#0000ff;stroke:#0000ff;stroke-width:0.5;" x="886.8096" xlink:href="#m49ef484be7" y="367.999104"/>
     <use style="fill:#0000ff;stroke:#0000ff;stroke-width:0.5;" x="924.9024" xlink:href="#m49ef484be7" y="367.006848"/>
     <use style="fill:#0000ff;stroke:#0000ff;stroke-width:0.5;" x="962.9952" xlink:href="#m49ef484be7" y="363.402624"/>
     <use style="fill:#0000ff;stroke:#0000ff;stroke-width:0.5;" x="1001.088" xlink:href="#m49ef484be7" y="363.067008"/>
    </g>
   </g>
   <g id="line2d_4">
    <path clip-path="url(#pfbfb3eaf8c)" d="M 201.1392 386.800896 
L 239.232 385.429248 
L 277.3248 384.035712 
L 315.4176 382.868352 
L 353.5104 381.489408 
L 391.6032 380.139648 
L 429.696 378.673152 
L 467.7888 377.768448 
L 505.8816 376.032 
L 543.9744 374.740608 
L 582.0672 374.142336 
L 620.16 372.799872 
L 658.2528 371.698176 
L 696.3456 371.158272 
L 734.4384 370.078464 
L 772.5312 368.502528 
L 810.624 367.254912 
L 848.7168 367.437312 
L 886.8096 367.145472 
L 924.9024 364.86912 
L 962.9952 368.502528 
L 1001.088 368.312832 
" style="fill:none;stroke:#00bfbf;stroke-linecap:square;stroke-width:1.5;"/>
    <defs>
     <path d="M 0 1.5 
C 0.397805 1.5 0.77937 1.341951 1.06066 1.06066 
C 1.341951 0.77937 1.5 0.397805 1.5 0 
C 1.5 -0.397805 1.341951 -0.77937 1.06066 -1.06066 
C 0.77937 -1.341951 0.397805 -1.5 0 -1.5 
C -0.397805 -1.5 -0.77937 -1.341951 -1.06066 -1.06066 
C -1.341951 -0.77937 -1.5 -0.397805 -1.5 0 
C -1.5 0.397805 -1.341951 0.77937 -1.06066 1.06066 
C -0.77937 1.341951 -0.397805 1.5 0 1.5 
z
" id="m6de32abd03" style="stroke:#00bfbf;stroke-width:0.5;"/>
    </defs>
    <g clip-path="url(#pfbfb3eaf8c)">
     <use style="fill:#00bfbf;stroke:#00bfbf;stroke-width:0.5;" x="201.1392" xlink:href="#m6de32abd03" y="386.800896"/>
     <use style="fill:#00bfbf;stroke:#00bfbf;stroke-width:0.5;" x="239.232" xlink:href="#m6de32abd03" y="385.429248"/>
     <use style="fill:#00bfbf;stroke:#00bfbf;stroke-width:0.5;" x="277.3248" xlink:href="#m6de32abd03" y="384.035712"/>
     <use style="fill:#00bfbf;stroke:#00bfbf;stroke-width:0.5;" x="315.4176" xlink:href="#m6de32abd03" y="382.868352"/>
     <use style="fill:#00bfbf;stroke:#00bfbf;stroke-width:0.5;" x="353.5104" xlink:href="#m6de32abd03" y="381.489408"/>
     <use style="fill:#00bfbf;stroke:#00bfbf;stroke-width:0.5;" x="391.6032" xlink:href="#m6de32abd03" y="380.139648"/>
     <use style="fill:#00bfbf;stroke:#00bfbf;stroke-width:0.5;" x="429.696" xlink:href="#m6de32abd03" y="378.673152"/>
     <use style="fill:#00bfbf;stroke:#00bfbf;stroke-width:0.5;" x="467.7888" xlink:href="#m6de32abd03" y="377.768448"/>
     <use style="fill:#00bfbf;stroke:#00bfbf;stroke-width:0.5;" x="505.8816" xlink:href="#m6de32abd03" y="376.032"/>
     <use style="fill:#00bfbf;stroke:#00bfbf;stroke-width:0.5;" x="543.9744" xlink:href="#m6de32abd03" y="374.740608"/>
     <use style="fill:#00bfbf;stroke:#00bfbf;stroke-width:0.5;" x="582.0672" xlink:href="#m6de32abd03" y="374.142336"/>
     <use style="fill:#00bfbf;stroke:#00bfbf;stroke-width:0.5;" x="620.16" xlink:href="#m6de32abd03" y="372.799872"/>
     <use style="fill:#00bfbf;stroke:#00bfbf;stroke-width:0.5;" x="658.2528" xlink:href="#m6de32abd03" y="371.698176"/>
     <use style="fill:#00bfbf;stroke:#00bfbf;stroke-width:0.5;" x="696.3456" xlink:href="#m6de32abd03" y="371.158272"/>
     <use style="fill:#00bfbf;stroke:#00bfbf;stroke-width:0.5;" x="734.4384" xlink:href="#m6de32abd03" y="370.078464"/>
     <use style="fill:#00bfbf;stroke:#00bfbf;stroke-width:0.5;" x="772.5312" xlink:href="#m6de32abd03" y="368.502528"/>
     <use style="fill:#00bfbf;stroke:#00bfbf;stroke-width:0.5;" x="810.624" xlink:href="#m6de32abd03" y="367.254912"/>
     <use style="fill:#00bfbf;stroke:#00bfbf;stroke-width:0.5;" x="848.7168" xlink:href="#m6de32abd03" y="367.437312"/>
     <use style="fill:#00bfbf;stroke:#00bfbf;stroke-width:0.5;" x="886.8096" xlink:href="#m6de32abd03" y="367.145472"/>
     <use style="fill:#00bfbf;stroke:#00bfbf;stroke-width:0.5;" x="924.9024" xlink:href="#m6de32abd03" y="364.86912"/>
     <use style="fill:#00bfbf;stroke:#00bfbf;stroke-width:0.5;" x="962.9952" xlink:href="#m6de32abd03" y="368.502528"/>
     <use style="fill:#00bfbf;stroke:#00bfbf;stroke-width:0.5;" x="1001.088" xlink:href="#m6de32abd03" y="368.312832"/>
    </g>
   </g>
   <g id="line2d_5">
    <path clip-path="url(#pfbfb3eaf8c)" d="M 201.1392 388.8 
L 239.232 388.8 
L 277.3248 388.8 
L 315.4176 214.272384 
L 353.5104 214.702848 
L 391.6032 388.8 
L 429.696 213.36768 
L 467.7888 212.499456 
L 505.8816 388.8 
L 543.9744 208.763904 
L 582.0672 217.329408 
L 620.16 217.825536 
L 658.2528 241.632384 
L 696.3456 224.909952 
L 734.4384 219.270144 
L 772.5312 214.440192 
L 810.624 214.221312 
L 848.7168 215.279232 
L 886.8096 213.265536 
L 924.9024 218.080896 
L 962.9952 224.596224 
L 1001.088 218.336256 
" style="fill:none;stroke:#bf00bf;stroke-linecap:square;stroke-width:1.5;"/>
    <defs>
     <path d="M 0 1.5 
C 0.397805 1.5 0.77937 1.341951 1.06066 1.06066 
C 1.341951 0.77937 1.5 0.397805 1.5 0 
C 1.5 -0.397805 1.341951 -0.77937 1.06066 -1.06066 
C 0.77937 -1.341951 0.397805 -1.5 0 -1.5 
C -0.397805 -1.5 -0.77937 -1.341951 -1.06066 -1.06066 
C -1.341951 -0.77937 -1.5 -0.397805 -1.5 0 
C -1.5 0.397805 -1.341951 0.77937 -1.06066 1.06066 
C -0.77937 1.341951 -0.397805 1.5 0 1.5 
z
" id="m1b076cabfc" style="stroke:#bf00bf;stroke-width:0.5;"/>
    </defs>
    <g clip-path="url(#pfbfb3eaf8c)">
     <use style="fill:#bf00bf;stroke:#bf00bf;stroke-width:0.5;" x="201.1392" xlink:href="#m1b076cabfc" y="388.8"/>
     <use style="fill:#bf00bf;stroke:#bf00bf;stroke-width:0.5;" x="239.232" xlink:href="#m1b076cabfc" y="388.8"/>
     <use style="fill:#bf00bf;stroke:#bf00bf;stroke-width:0.5;" x="277.3248" xlink:href="#m1b076cabfc" y="388.8"/>
     <use style="fill:#bf00bf;stroke:#bf00bf;stroke-width:0.5;" x="315.4176" xlink:href="#m1b076cabfc" y="214.272384"/>
     <use style="fill:#bf00bf;stroke:#bf00bf;stroke-width:0.5;" x="353.5104" xlink:href="#m1b076cabfc" y="214.702848"/>
     <use style="fill:#bf00bf;stroke:#bf00bf;stroke-width:0.5;" x="391.6032" xlink:href="#m1b076cabfc" y="388.8"/>
     <use style="fill:#bf00bf;stroke:#bf00bf;stroke-width:0.5;" x="429.696" xlink:href="#m1b076cabfc" y="213.36768"/>
     <use style="fill:#bf00bf;stroke:#bf00bf;stroke-width:0.5;" x="467.7888" xlink:href="#m1b076cabfc" y="212.499456"/>
     <use style="fill:#bf00bf;stroke:#bf00bf;stroke-width:0.5;" x="505.8816" xlink:href="#m1b076cabfc" y="388.8"/>
     <use style="fill:#bf00bf;stroke:#bf00bf;stroke-width:0.5;" x="543.9744" xlink:href="#m1b076cabfc" y="208.763904"/>
     <use style="fill:#bf00bf;stroke:#bf00bf;stroke-width:0.5;" x="582.0672" xlink:href="#m1b076cabfc" y="217.329408"/>
     <use style="fill:#bf00bf;stroke:#bf00bf;stroke-width:0.5;" x="620.16" xlink:href="#m1b076cabfc" y="217.825536"/>
     <use style="fill:#bf00bf;stroke:#bf00bf;stroke-width:0.5;" x="658.2528" xlink:href="#m1b076cabfc" y="241.632384"/>
     <use style="fill:#bf00bf;stroke:#bf00bf;stroke-width:0.5;" x="696.3456" xlink:href="#m1b076cabfc" y="224.909952"/>
     <use style="fill:#bf00bf;stroke:#bf00bf;stroke-width:0.5;" x="734.4384" xlink:href="#m1b076cabfc" y="219.270144"/>
     <use style="fill:#bf00bf;stroke:#bf00bf;stroke-width:0.5;" x="772.5312" xlink:href="#m1b076cabfc" y="214.440192"/>
     <use style="fill:#bf00bf;stroke:#bf00bf;stroke-width:0.5;" x="810.624" xlink:href="#m1b076cabfc" y="214.221312"/>
     <use style="fill:#bf00bf;stroke:#bf00bf;stroke-width:0.5;" x="848.7168" xlink:href="#m1b076cabfc" y="215.279232"/>
     <use style="fill:#bf00bf;stroke:#bf00bf;stroke-width:0.5;" x="886.8096" xlink:href="#m1b076cabfc" y="213.265536"/>
     <use style="fill:#bf00bf;stroke:#bf00bf;stroke-width:0.5;" x="924.9024" xlink:href="#m1b076cabfc" y="218.080896"/>
     <use style="fill:#bf00bf;stroke:#bf00bf;stroke-width:0.5;" x="962.9952" xlink:href="#m1b076cabfc" y="224.596224"/>
     <use style="fill:#bf00bf;stroke:#bf00bf;stroke-width:0.5;" x="1001.088" xlink:href="#m1b076cabfc" y="218.336256"/>
    </g>
   </g>
   <g id="patch_3">
    <path d="M 144 60.48 
L 1036.8 60.48 
" style="fill:none;stroke:#000000;stroke-linecap:square;stroke-linejoin:miter;"/>
   </g>
   <g id="patch_4">
    <path d="M 1036.8 388.8 
L 1036.8 60.48 
" style="fill:none;stroke:#000000;stroke-linecap:square;stroke-linejoin:miter;"/>
   </g>
   <g id="patch_5">
    <path d="M 144 388.8 
L 1036.8 388.8 
" style="fill:none;stroke:#000000;stroke-linecap:square;stroke-linejoin:miter;"/>
   </g>
   <g id="patch_6">
    <path d="M 144 388.8 
L 144 60.48 
" style="fill:none;stroke:#000000;stroke-linecap:square;stroke-linejoin:miter;"/>
   </g>
   <g id="matplotlib.axis_1">
    <g id="xtick_1">
     <g id="line2d_6">
      <defs>
       <path d="M 0 0 
L 0 -4 
" id="mfccaa3a2b5" style="stroke:#000000;stroke-width:0.5;"/>
      </defs>
      <g>
       <use style="stroke:#000000;stroke-width:0.5;" x="144.0" xlink:href="#mfccaa3a2b5" y="388.8"/>
      </g>
     </g>
     <g id="line2d_7">
      <defs>
       <path d="M 0 0 
L 0 4 
" id="m173f649a2e" style="stroke:#000000;stroke-width:0.5;"/>
      </defs>
      <g>
       <use style="stroke:#000000;stroke-width:0.5;" x="144.0" xlink:href="#m173f649a2e" y="60.48"/>
      </g>
     </g>
     <g id="text_1">
      <!-- 0 -->
      <defs>
       <path d="M 31.78125 66.40625 
Q 24.171875 66.40625 20.328125 58.90625 
Q 16.5 51.421875 16.5 36.375 
Q 16.5 21.390625 20.328125 13.890625 
Q 24.171875 6.390625 31.78125 6.390625 
Q 39.453125 6.390625 43.28125 13.890625 
Q 47.125 21.390625 47.125 36.375 
Q 47.125 51.421875 43.28125 58.90625 
Q 39.453125 66.40625 31.78125 66.40625 
M 31.78125 74.21875 
Q 44.046875 74.21875 50.515625 64.515625 
Q 56.984375 54.828125 56.984375 36.375 
Q 56.984375 17.96875 50.515625 8.265625 
Q 44.046875 -1.421875 31.78125 -1.421875 
Q 19.53125 -1.421875 13.0625 8.265625 
Q 6.59375 17.96875 6.59375 36.375 
Q 6.59375 54.828125 13.0625 64.515625 
Q 19.53125 74.21875 31.78125 74.21875 
" id="BitstreamVeraSans-Roman-30"/>
      </defs>
      <g transform="translate(140.1825 401.918125)scale(0.12 -0.12)">
       <use xlink:href="#BitstreamVeraSans-Roman-30"/>
      </g>
     </g>
    </g>
    <g id="xtick_2">
     <g id="line2d_8">
      <g>
       <use style="stroke:#000000;stroke-width:0.5;" x="263.04" xlink:href="#mfccaa3a2b5" y="388.8"/>
      </g>
     </g>
     <g id="line2d_9">
      <g>
       <use style="stroke:#000000;stroke-width:0.5;" x="263.04" xlink:href="#m173f649a2e" y="60.48"/>
      </g>
     </g>
     <g id="text_2">
      <!-- 200 -->
      <defs>
       <path d="M 19.1875 8.296875 
L 53.609375 8.296875 
L 53.609375 0 
L 7.328125 0 
L 7.328125 8.296875 
Q 12.9375 14.109375 22.625 23.890625 
Q 32.328125 33.6875 34.8125 36.53125 
Q 39.546875 41.84375 41.421875 45.53125 
Q 43.3125 49.21875 43.3125 52.78125 
Q 43.3125 58.59375 39.234375 62.25 
Q 35.15625 65.921875 28.609375 65.921875 
Q 23.96875 65.921875 18.8125 64.3125 
Q 13.671875 62.703125 7.8125 59.421875 
L 7.8125 69.390625 
Q 13.765625 71.78125 18.9375 73 
Q 24.125 74.21875 28.421875 74.21875 
Q 39.75 74.21875 46.484375 68.546875 
Q 53.21875 62.890625 53.21875 53.421875 
Q 53.21875 48.921875 51.53125 44.890625 
Q 49.859375 40.875 45.40625 35.40625 
Q 44.1875 33.984375 37.640625 27.21875 
Q 31.109375 20.453125 19.1875 8.296875 
" id="BitstreamVeraSans-Roman-32"/>
      </defs>
      <g transform="translate(251.5875 401.918125)scale(0.12 -0.12)">
       <use xlink:href="#BitstreamVeraSans-Roman-32"/>
       <use x="63.623046875" xlink:href="#BitstreamVeraSans-Roman-30"/>
       <use x="127.24609375" xlink:href="#BitstreamVeraSans-Roman-30"/>
      </g>
     </g>
    </g>
    <g id="xtick_3">
     <g id="line2d_10">
      <g>
       <use style="stroke:#000000;stroke-width:0.5;" x="382.08" xlink:href="#mfccaa3a2b5" y="388.8"/>
      </g>
     </g>
     <g id="line2d_11">
      <g>
       <use style="stroke:#000000;stroke-width:0.5;" x="382.08" xlink:href="#m173f649a2e" y="60.48"/>
      </g>
     </g>
     <g id="text_3">
      <!-- 400 -->
      <defs>
       <path d="M 37.796875 64.3125 
L 12.890625 25.390625 
L 37.796875 25.390625 
z
M 35.203125 72.90625 
L 47.609375 72.90625 
L 47.609375 25.390625 
L 58.015625 25.390625 
L 58.015625 17.1875 
L 47.609375 17.1875 
L 47.609375 0 
L 37.796875 0 
L 37.796875 17.1875 
L 4.890625 17.1875 
L 4.890625 26.703125 
z
" id="BitstreamVeraSans-Roman-34"/>
      </defs>
      <g transform="translate(370.6275 401.918125)scale(0.12 -0.12)">
       <use xlink:href="#BitstreamVeraSans-Roman-34"/>
       <use x="63.623046875" xlink:href="#BitstreamVeraSans-Roman-30"/>
       <use x="127.24609375" xlink:href="#BitstreamVeraSans-Roman-30"/>
      </g>
     </g>
    </g>
    <g id="xtick_4">
     <g id="line2d_12">
      <g>
       <use style="stroke:#000000;stroke-width:0.5;" x="501.12" xlink:href="#mfccaa3a2b5" y="388.8"/>
      </g>
     </g>
     <g id="line2d_13">
      <g>
       <use style="stroke:#000000;stroke-width:0.5;" x="501.12" xlink:href="#m173f649a2e" y="60.48"/>
      </g>
     </g>
     <g id="text_4">
      <!-- 600 -->
      <defs>
       <path d="M 33.015625 40.375 
Q 26.375 40.375 22.484375 35.828125 
Q 18.609375 31.296875 18.609375 23.390625 
Q 18.609375 15.53125 22.484375 10.953125 
Q 26.375 6.390625 33.015625 6.390625 
Q 39.65625 6.390625 43.53125 10.953125 
Q 47.40625 15.53125 47.40625 23.390625 
Q 47.40625 31.296875 43.53125 35.828125 
Q 39.65625 40.375 33.015625 40.375 
M 52.59375 71.296875 
L 52.59375 62.3125 
Q 48.875 64.0625 45.09375 64.984375 
Q 41.3125 65.921875 37.59375 65.921875 
Q 27.828125 65.921875 22.671875 59.328125 
Q 17.53125 52.734375 16.796875 39.40625 
Q 19.671875 43.65625 24.015625 45.921875 
Q 28.375 48.1875 33.59375 48.1875 
Q 44.578125 48.1875 50.953125 41.515625 
Q 57.328125 34.859375 57.328125 23.390625 
Q 57.328125 12.15625 50.6875 5.359375 
Q 44.046875 -1.421875 33.015625 -1.421875 
Q 20.359375 -1.421875 13.671875 8.265625 
Q 6.984375 17.96875 6.984375 36.375 
Q 6.984375 53.65625 15.1875 63.9375 
Q 23.390625 74.21875 37.203125 74.21875 
Q 40.921875 74.21875 44.703125 73.484375 
Q 48.484375 72.75 52.59375 71.296875 
" id="BitstreamVeraSans-Roman-36"/>
      </defs>
      <g transform="translate(489.6675 401.918125)scale(0.12 -0.12)">
       <use xlink:href="#BitstreamVeraSans-Roman-36"/>
       <use x="63.623046875" xlink:href="#BitstreamVeraSans-Roman-30"/>
       <use x="127.24609375" xlink:href="#BitstreamVeraSans-Roman-30"/>
      </g>
     </g>
    </g>
    <g id="xtick_5">
     <g id="line2d_14">
      <g>
       <use style="stroke:#000000;stroke-width:0.5;" x="620.16" xlink:href="#mfccaa3a2b5" y="388.8"/>
      </g>
     </g>
     <g id="line2d_15">
      <g>
       <use style="stroke:#000000;stroke-width:0.5;" x="620.16" xlink:href="#m173f649a2e" y="60.48"/>
      </g>
     </g>
     <g id="text_5">
      <!-- 800 -->
      <defs>
       <path d="M 31.78125 34.625 
Q 24.75 34.625 20.71875 30.859375 
Q 16.703125 27.09375 16.703125 20.515625 
Q 16.703125 13.921875 20.71875 10.15625 
Q 24.75 6.390625 31.78125 6.390625 
Q 38.8125 6.390625 42.859375 10.171875 
Q 46.921875 13.96875 46.921875 20.515625 
Q 46.921875 27.09375 42.890625 30.859375 
Q 38.875 34.625 31.78125 34.625 
M 21.921875 38.8125 
Q 15.578125 40.375 12.03125 44.71875 
Q 8.5 49.078125 8.5 55.328125 
Q 8.5 64.0625 14.71875 69.140625 
Q 20.953125 74.21875 31.78125 74.21875 
Q 42.671875 74.21875 48.875 69.140625 
Q 55.078125 64.0625 55.078125 55.328125 
Q 55.078125 49.078125 51.53125 44.71875 
Q 48 40.375 41.703125 38.8125 
Q 48.828125 37.15625 52.796875 32.3125 
Q 56.78125 27.484375 56.78125 20.515625 
Q 56.78125 9.90625 50.3125 4.234375 
Q 43.84375 -1.421875 31.78125 -1.421875 
Q 19.734375 -1.421875 13.25 4.234375 
Q 6.78125 9.90625 6.78125 20.515625 
Q 6.78125 27.484375 10.78125 32.3125 
Q 14.796875 37.15625 21.921875 38.8125 
M 18.3125 54.390625 
Q 18.3125 48.734375 21.84375 45.5625 
Q 25.390625 42.390625 31.78125 42.390625 
Q 38.140625 42.390625 41.71875 45.5625 
Q 45.3125 48.734375 45.3125 54.390625 
Q 45.3125 60.0625 41.71875 63.234375 
Q 38.140625 66.40625 31.78125 66.40625 
Q 25.390625 66.40625 21.84375 63.234375 
Q 18.3125 60.0625 18.3125 54.390625 
" id="BitstreamVeraSans-Roman-38"/>
      </defs>
      <g transform="translate(608.7075 401.918125)scale(0.12 -0.12)">
       <use xlink:href="#BitstreamVeraSans-Roman-38"/>
       <use x="63.623046875" xlink:href="#BitstreamVeraSans-Roman-30"/>
       <use x="127.24609375" xlink:href="#BitstreamVeraSans-Roman-30"/>
      </g>
     </g>
    </g>
    <g id="xtick_6">
     <g id="line2d_16">
      <g>
       <use style="stroke:#000000;stroke-width:0.5;" x="739.2" xlink:href="#mfccaa3a2b5" y="388.8"/>
      </g>
     </g>
     <g id="line2d_17">
      <g>
       <use style="stroke:#000000;stroke-width:0.5;" x="739.2" xlink:href="#m173f649a2e" y="60.48"/>
      </g>
     </g>
     <g id="text_6">
      <!-- 1000 -->
      <defs>
       <path d="M 12.40625 8.296875 
L 28.515625 8.296875 
L 28.515625 63.921875 
L 10.984375 60.40625 
L 10.984375 69.390625 
L 28.421875 72.90625 
L 38.28125 72.90625 
L 38.28125 8.296875 
L 54.390625 8.296875 
L 54.390625 0 
L 12.40625 0 
z
" id="BitstreamVeraSans-Roman-31"/>
      </defs>
      <g transform="translate(723.93 401.918125)scale(0.12 -0.12)">
       <use xlink:href="#BitstreamVeraSans-Roman-31"/>
       <use x="63.623046875" xlink:href="#BitstreamVeraSans-Roman-30"/>
       <use x="127.24609375" xlink:href="#BitstreamVeraSans-Roman-30"/>
       <use x="190.869140625" xlink:href="#BitstreamVeraSans-Roman-30"/>
      </g>
     </g>
    </g>
    <g id="xtick_7">
     <g id="line2d_18">
      <g>
       <use style="stroke:#000000;stroke-width:0.5;" x="858.24" xlink:href="#mfccaa3a2b5" y="388.8"/>
      </g>
     </g>
     <g id="line2d_19">
      <g>
       <use style="stroke:#000000;stroke-width:0.5;" x="858.24" xlink:href="#m173f649a2e" y="60.48"/>
      </g>
     </g>
     <g id="text_7">
      <!-- 1200 -->
      <g transform="translate(842.97 401.918125)scale(0.12 -0.12)">
       <use xlink:href="#BitstreamVeraSans-Roman-31"/>
       <use x="63.623046875" xlink:href="#BitstreamVeraSans-Roman-32"/>
       <use x="127.24609375" xlink:href="#BitstreamVeraSans-Roman-30"/>
       <use x="190.869140625" xlink:href="#BitstreamVeraSans-Roman-30"/>
      </g>
     </g>
    </g>
    <g id="xtick_8">
     <g id="line2d_20">
      <g>
       <use style="stroke:#000000;stroke-width:0.5;" x="977.28" xlink:href="#mfccaa3a2b5" y="388.8"/>
      </g>
     </g>
     <g id="line2d_21">
      <g>
       <use style="stroke:#000000;stroke-width:0.5;" x="977.28" xlink:href="#m173f649a2e" y="60.48"/>
      </g>
     </g>
     <g id="text_8">
      <!-- 1400 -->
      <g transform="translate(962.01 401.918125)scale(0.12 -0.12)">
       <use xlink:href="#BitstreamVeraSans-Roman-31"/>
       <use x="63.623046875" xlink:href="#BitstreamVeraSans-Roman-34"/>
       <use x="127.24609375" xlink:href="#BitstreamVeraSans-Roman-30"/>
       <use x="190.869140625" xlink:href="#BitstreamVeraSans-Roman-30"/>
      </g>
     </g>
    </g>
    <g id="text_9">
     <!-- 20230217084729 - MSS or Packet Size -->
     <defs>
      <path d="M 40.578125 39.3125 
Q 47.65625 37.796875 51.625 33 
Q 55.609375 28.21875 55.609375 21.1875 
Q 55.609375 10.40625 48.1875 4.484375 
Q 40.765625 -1.421875 27.09375 -1.421875 
Q 22.515625 -1.421875 17.65625 -0.515625 
Q 12.796875 0.390625 7.625 2.203125 
L 7.625 11.71875 
Q 11.71875 9.328125 16.59375 8.109375 
Q 21.484375 6.890625 26.8125 6.890625 
Q 36.078125 6.890625 40.9375 10.546875 
Q 45.796875 14.203125 45.796875 21.1875 
Q 45.796875 27.640625 41.28125 31.265625 
Q 36.765625 34.90625 28.71875 34.90625 
L 20.21875 34.90625 
L 20.21875 43.015625 
L 29.109375 43.015625 
Q 36.375 43.015625 40.234375 45.921875 
Q 44.09375 48.828125 44.09375 54.296875 
Q 44.09375 59.90625 40.109375 62.90625 
Q 36.140625 65.921875 28.71875 65.921875 
Q 24.65625 65.921875 20.015625 65.03125 
Q 15.375 64.15625 9.8125 62.3125 
L 9.8125 71.09375 
Q 15.4375 72.65625 20.34375 73.4375 
Q 25.25 74.21875 29.59375 74.21875 
Q 40.828125 74.21875 47.359375 69.109375 
Q 53.90625 64.015625 53.90625 55.328125 
Q 53.90625 49.265625 50.4375 45.09375 
Q 46.96875 40.921875 40.578125 39.3125 
" id="BitstreamVeraSans-Roman-33"/>
      <path d="M 9.8125 72.90625 
L 24.515625 72.90625 
L 43.109375 23.296875 
L 61.8125 72.90625 
L 76.515625 72.90625 
L 76.515625 0 
L 66.890625 0 
L 66.890625 64.015625 
L 48.09375 14.015625 
L 38.1875 14.015625 
L 19.390625 64.015625 
L 19.390625 0 
L 9.8125 0 
z
" id="BitstreamVeraSans-Roman-4d"/>
      <path d="M 8.203125 72.90625 
L 55.078125 72.90625 
L 55.078125 68.703125 
L 28.609375 0 
L 18.3125 0 
L 43.21875 64.59375 
L 8.203125 64.59375 
z
" id="BitstreamVeraSans-Roman-37"/>
      <path id="BitstreamVeraSans-Roman-20"/>
      <path d="M 34.28125 27.484375 
Q 23.390625 27.484375 19.1875 25 
Q 14.984375 22.515625 14.984375 16.5 
Q 14.984375 11.71875 18.140625 8.90625 
Q 21.296875 6.109375 26.703125 6.109375 
Q 34.1875 6.109375 38.703125 11.40625 
Q 43.21875 16.703125 43.21875 25.484375 
L 43.21875 27.484375 
z
M 52.203125 31.203125 
L 52.203125 0 
L 43.21875 0 
L 43.21875 8.296875 
Q 40.140625 3.328125 35.546875 0.953125 
Q 30.953125 -1.421875 24.3125 -1.421875 
Q 15.921875 -1.421875 10.953125 3.296875 
Q 6 8.015625 6 15.921875 
Q 6 25.140625 12.171875 29.828125 
Q 18.359375 34.515625 30.609375 34.515625 
L 43.21875 34.515625 
L 43.21875 35.40625 
Q 43.21875 41.609375 39.140625 45 
Q 35.0625 48.390625 27.6875 48.390625 
Q 23 48.390625 18.546875 47.265625 
Q 14.109375 46.140625 10.015625 43.890625 
L 10.015625 52.203125 
Q 14.9375 54.109375 19.578125 55.046875 
Q 24.21875 56 28.609375 56 
Q 40.484375 56 46.34375 49.84375 
Q 52.203125 43.703125 52.203125 31.203125 
" id="BitstreamVeraSans-Roman-61"/>
      <path d="M 10.984375 1.515625 
L 10.984375 10.5 
Q 14.703125 8.734375 18.5 7.8125 
Q 22.3125 6.890625 25.984375 6.890625 
Q 35.75 6.890625 40.890625 13.453125 
Q 46.046875 20.015625 46.78125 33.40625 
Q 43.953125 29.203125 39.59375 26.953125 
Q 35.25 24.703125 29.984375 24.703125 
Q 19.046875 24.703125 12.671875 31.3125 
Q 6.296875 37.9375 6.296875 49.421875 
Q 6.296875 60.640625 12.9375 67.421875 
Q 19.578125 74.21875 30.609375 74.21875 
Q 43.265625 74.21875 49.921875 64.515625 
Q 56.59375 54.828125 56.59375 36.375 
Q 56.59375 19.140625 48.40625 8.859375 
Q 40.234375 -1.421875 26.421875 -1.421875 
Q 22.703125 -1.421875 18.890625 -0.6875 
Q 15.09375 0.046875 10.984375 1.515625 
M 30.609375 32.421875 
Q 37.25 32.421875 41.125 36.953125 
Q 45.015625 41.5 45.015625 49.421875 
Q 45.015625 57.28125 41.125 61.84375 
Q 37.25 66.40625 30.609375 66.40625 
Q 23.96875 66.40625 20.09375 61.84375 
Q 16.21875 57.28125 16.21875 49.421875 
Q 16.21875 41.5 20.09375 36.953125 
Q 23.96875 32.421875 30.609375 32.421875 
" id="BitstreamVeraSans-Roman-39"/>
      <path d="M 9.078125 75.984375 
L 18.109375 75.984375 
L 18.109375 31.109375 
L 44.921875 54.6875 
L 56.390625 54.6875 
L 27.390625 29.109375 
L 57.625 0 
L 45.90625 0 
L 18.109375 26.703125 
L 18.109375 0 
L 9.078125 0 
z
" id="BitstreamVeraSans-Roman-6b"/>
      <path d="M 19.671875 64.796875 
L 19.671875 37.40625 
L 32.078125 37.40625 
Q 38.96875 37.40625 42.71875 40.96875 
Q 46.484375 44.53125 46.484375 51.125 
Q 46.484375 57.671875 42.71875 61.234375 
Q 38.96875 64.796875 32.078125 64.796875 
z
M 9.8125 72.90625 
L 32.078125 72.90625 
Q 44.34375 72.90625 50.609375 67.359375 
Q 56.890625 61.8125 56.890625 51.125 
Q 56.890625 40.328125 50.609375 34.8125 
Q 44.34375 29.296875 32.078125 29.296875 
L 19.671875 29.296875 
L 19.671875 0 
L 9.8125 0 
z
" id="BitstreamVeraSans-Roman-50"/>
      <path d="M 53.515625 70.515625 
L 53.515625 60.890625 
Q 47.90625 63.578125 42.921875 64.890625 
Q 37.9375 66.21875 33.296875 66.21875 
Q 25.25 66.21875 20.875 63.09375 
Q 16.5 59.96875 16.5 54.203125 
Q 16.5 49.359375 19.40625 46.890625 
Q 22.3125 44.4375 30.421875 42.921875 
L 36.375 41.703125 
Q 47.40625 39.59375 52.65625 34.296875 
Q 57.90625 29 57.90625 20.125 
Q 57.90625 9.515625 50.796875 4.046875 
Q 43.703125 -1.421875 29.984375 -1.421875 
Q 24.8125 -1.421875 18.96875 -0.25 
Q 13.140625 0.921875 6.890625 3.21875 
L 6.890625 13.375 
Q 12.890625 10.015625 18.65625 8.296875 
Q 24.421875 6.59375 29.984375 6.59375 
Q 38.421875 6.59375 43.015625 9.90625 
Q 47.609375 13.234375 47.609375 19.390625 
Q 47.609375 24.75 44.3125 27.78125 
Q 41.015625 30.8125 33.5 32.328125 
L 27.484375 33.5 
Q 16.453125 35.6875 11.515625 40.375 
Q 6.59375 45.0625 6.59375 53.421875 
Q 6.59375 63.09375 13.40625 68.65625 
Q 20.21875 74.21875 32.171875 74.21875 
Q 37.3125 74.21875 42.625 73.28125 
Q 47.953125 72.359375 53.515625 70.515625 
" id="BitstreamVeraSans-Roman-53"/>
      <path d="M 9.421875 54.6875 
L 18.40625 54.6875 
L 18.40625 0 
L 9.421875 0 
z
M 9.421875 75.984375 
L 18.40625 75.984375 
L 18.40625 64.59375 
L 9.421875 64.59375 
z
" id="BitstreamVeraSans-Roman-69"/>
      <path d="M 4.890625 31.390625 
L 31.203125 31.390625 
L 31.203125 23.390625 
L 4.890625 23.390625 
z
" id="BitstreamVeraSans-Roman-2d"/>
      <path d="M 48.78125 52.59375 
L 48.78125 44.1875 
Q 44.96875 46.296875 41.140625 47.34375 
Q 37.3125 48.390625 33.40625 48.390625 
Q 24.65625 48.390625 19.8125 42.84375 
Q 14.984375 37.3125 14.984375 27.296875 
Q 14.984375 17.28125 19.8125 11.734375 
Q 24.65625 6.203125 33.40625 6.203125 
Q 37.3125 6.203125 41.140625 7.25 
Q 44.96875 8.296875 48.78125 10.40625 
L 48.78125 2.09375 
Q 45.015625 0.34375 40.984375 -0.53125 
Q 36.96875 -1.421875 32.421875 -1.421875 
Q 20.0625 -1.421875 12.78125 6.34375 
Q 5.515625 14.109375 5.515625 27.296875 
Q 5.515625 40.671875 12.859375 48.328125 
Q 20.21875 56 33.015625 56 
Q 37.15625 56 41.109375 55.140625 
Q 45.0625 54.296875 48.78125 52.59375 
" id="BitstreamVeraSans-Roman-63"/>
      <path d="M 56.203125 29.59375 
L 56.203125 25.203125 
L 14.890625 25.203125 
Q 15.484375 15.921875 20.484375 11.0625 
Q 25.484375 6.203125 34.421875 6.203125 
Q 39.59375 6.203125 44.453125 7.46875 
Q 49.3125 8.734375 54.109375 11.28125 
L 54.109375 2.78125 
Q 49.265625 0.734375 44.1875 -0.34375 
Q 39.109375 -1.421875 33.890625 -1.421875 
Q 20.796875 -1.421875 13.15625 6.1875 
Q 5.515625 13.8125 5.515625 26.8125 
Q 5.515625 40.234375 12.765625 48.109375 
Q 20.015625 56 32.328125 56 
Q 43.359375 56 49.78125 48.890625 
Q 56.203125 41.796875 56.203125 29.59375 
M 47.21875 32.234375 
Q 47.125 39.59375 43.09375 43.984375 
Q 39.0625 48.390625 32.421875 48.390625 
Q 24.90625 48.390625 20.390625 44.140625 
Q 15.875 39.890625 15.1875 32.171875 
z
" id="BitstreamVeraSans-Roman-65"/>
      <path d="M 18.3125 70.21875 
L 18.3125 54.6875 
L 36.8125 54.6875 
L 36.8125 47.703125 
L 18.3125 47.703125 
L 18.3125 18.015625 
Q 18.3125 11.328125 20.140625 9.421875 
Q 21.96875 7.515625 27.59375 7.515625 
L 36.8125 7.515625 
L 36.8125 0 
L 27.59375 0 
Q 17.1875 0 13.234375 3.875 
Q 9.28125 7.765625 9.28125 18.015625 
L 9.28125 47.703125 
L 2.6875 47.703125 
L 2.6875 54.6875 
L 9.28125 54.6875 
L 9.28125 70.21875 
z
" id="BitstreamVeraSans-Roman-74"/>
      <path d="M 5.515625 54.6875 
L 48.1875 54.6875 
L 48.1875 46.484375 
L 14.40625 7.171875 
L 48.1875 7.171875 
L 48.1875 0 
L 4.296875 0 
L 4.296875 8.203125 
L 38.09375 47.515625 
L 5.515625 47.515625 
z
" id="BitstreamVeraSans-Roman-7a"/>
      <path d="M 41.109375 46.296875 
Q 39.59375 47.171875 37.8125 47.578125 
Q 36.03125 48 33.890625 48 
Q 26.265625 48 22.1875 43.046875 
Q 18.109375 38.09375 18.109375 28.8125 
L 18.109375 0 
L 9.078125 0 
L 9.078125 54.6875 
L 18.109375 54.6875 
L 18.109375 46.1875 
Q 20.953125 51.171875 25.484375 53.578125 
Q 30.03125 56 36.53125 56 
Q 37.453125 56 38.578125 55.875 
Q 39.703125 55.765625 41.0625 55.515625 
z
" id="BitstreamVeraSans-Roman-72"/>
      <path d="M 30.609375 48.390625 
Q 23.390625 48.390625 19.1875 42.75 
Q 14.984375 37.109375 14.984375 27.296875 
Q 14.984375 17.484375 19.15625 11.84375 
Q 23.34375 6.203125 30.609375 6.203125 
Q 37.796875 6.203125 41.984375 11.859375 
Q 46.1875 17.53125 46.1875 27.296875 
Q 46.1875 37.015625 41.984375 42.703125 
Q 37.796875 48.390625 30.609375 48.390625 
M 30.609375 56 
Q 42.328125 56 49.015625 48.375 
Q 55.71875 40.765625 55.71875 27.296875 
Q 55.71875 13.875 49.015625 6.21875 
Q 42.328125 -1.421875 30.609375 -1.421875 
Q 18.84375 -1.421875 12.171875 6.21875 
Q 5.515625 13.875 5.515625 27.296875 
Q 5.515625 40.765625 12.171875 48.375 
Q 18.84375 56 30.609375 56 
" id="BitstreamVeraSans-Roman-6f"/>
     </defs>
     <g transform="translate(473.900625 418.531875)scale(0.12 -0.12)">
      <use xlink:href="#BitstreamVeraSans-Roman-32"/>
      <use x="63.623046875" xlink:href="#BitstreamVeraSans-Roman-30"/>
      <use x="127.24609375" xlink:href="#BitstreamVeraSans-Roman-32"/>
      <use x="190.869140625" xlink:href="#BitstreamVeraSans-Roman-33"/>
      <use x="254.4921875" xlink:href="#BitstreamVeraSans-Roman-30"/>
      <use x="318.115234375" xlink:href="#BitstreamVeraSans-Roman-32"/>
      <use x="381.73828125" xlink:href="#BitstreamVeraSans-Roman-31"/>
      <use x="445.361328125" xlink:href="#BitstreamVeraSans-Roman-37"/>
      <use x="508.984375" xlink:href="#BitstreamVeraSans-Roman-30"/>
      <use x="572.607421875" xlink:href="#BitstreamVeraSans-Roman-38"/>
      <use x="636.23046875" xlink:href="#BitstreamVeraSans-Roman-34"/>
      <use x="699.853515625" xlink:href="#BitstreamVeraSans-Roman-37"/>
      <use x="763.4765625" xlink:href="#BitstreamVeraSans-Roman-32"/>
      <use x="827.099609375" xlink:href="#BitstreamVeraSans-Roman-39"/>
      <use x="890.72265625" xlink:href="#BitstreamVeraSans-Roman-20"/>
      <use x="922.509765625" xlink:href="#BitstreamVeraSans-Roman-2d"/>
      <use x="958.59375" xlink:href="#BitstreamVeraSans-Roman-20"/>
      <use x="990.380859375" xlink:href="#BitstreamVeraSans-Roman-4d"/>
      <use x="1076.66015625" xlink:href="#BitstreamVeraSans-Roman-53"/>
      <use x="1140.13671875" xlink:href="#BitstreamVeraSans-Roman-53"/>
      <use x="1203.61328125" xlink:href="#BitstreamVeraSans-Roman-20"/>
      <use x="1235.40039062" xlink:href="#BitstreamVeraSans-Roman-6f"/>
      <use x="1296.58203125" xlink:href="#BitstreamVeraSans-Roman-72"/>
      <use x="1337.6953125" xlink:href="#BitstreamVeraSans-Roman-20"/>
      <use x="1369.48242188" xlink:href="#BitstreamVeraSans-Roman-50"/>
      <use x="1429.72265625" xlink:href="#BitstreamVeraSans-Roman-61"/>
      <use x="1491.00195312" xlink:href="#BitstreamVeraSans-Roman-63"/>
      <use x="1545.98242188" xlink:href="#BitstreamVeraSans-Roman-6b"/>
      <use x="1603.84570312" xlink:href="#BitstreamVeraSans-Roman-65"/>
      <use x="1665.36914062" xlink:href="#BitstreamVeraSans-Roman-74"/>
      <use x="1704.578125" xlink:href="#BitstreamVeraSans-Roman-20"/>
      <use x="1736.36523438" xlink:href="#BitstreamVeraSans-Roman-53"/>
      <use x="1799.84179688" xlink:href="#BitstreamVeraSans-Roman-69"/>
      <use x="1827.625" xlink:href="#BitstreamVeraSans-Roman-7a"/>
      <use x="1880.11523438" xlink:href="#BitstreamVeraSans-Roman-65"/>
     </g>
    </g>
   </g>
   <g id="matplotlib.axis_2">
    <g id="ytick_1">
     <g id="line2d_22">
      <defs>
       <path d="M 0 0 
L 4 0 
" id="m70186faf92" style="stroke:#000000;stroke-width:0.5;"/>
      </defs>
      <g>
       <use style="stroke:#000000;stroke-width:0.5;" x="144.0" xlink:href="#m70186faf92" y="388.8"/>
      </g>
     </g>
     <g id="line2d_23">
      <defs>
       <path d="M 0 0 
L -4 0 
" id="m2a14d4dde6" style="stroke:#000000;stroke-width:0.5;"/>
      </defs>
      <g>
       <use style="stroke:#000000;stroke-width:0.5;" x="1036.8" xlink:href="#m2a14d4dde6" y="388.8"/>
      </g>
     </g>
     <g id="text_10">
      <!-- 0 -->
      <g transform="translate(132.365 392.11125)scale(0.12 -0.12)">
       <use xlink:href="#BitstreamVeraSans-Roman-30"/>
      </g>
     </g>
    </g>
    <g id="ytick_2">
     <g id="line2d_24">
      <g>
       <use style="stroke:#000000;stroke-width:0.5;" x="144.0" xlink:href="#m70186faf92" y="352.32"/>
      </g>
     </g>
     <g id="line2d_25">
      <g>
       <use style="stroke:#000000;stroke-width:0.5;" x="1036.8" xlink:href="#m2a14d4dde6" y="352.32"/>
      </g>
     </g>
     <g id="text_11">
      <!-- 5000 -->
      <defs>
       <path d="M 10.796875 72.90625 
L 49.515625 72.90625 
L 49.515625 64.59375 
L 19.828125 64.59375 
L 19.828125 46.734375 
Q 21.96875 47.46875 24.109375 47.828125 
Q 26.265625 48.1875 28.421875 48.1875 
Q 40.625 48.1875 47.75 41.5 
Q 54.890625 34.8125 54.890625 23.390625 
Q 54.890625 11.625 47.5625 5.09375 
Q 40.234375 -1.421875 26.90625 -1.421875 
Q 22.3125 -1.421875 17.546875 -0.640625 
Q 12.796875 0.140625 7.71875 1.703125 
L 7.71875 11.625 
Q 12.109375 9.234375 16.796875 8.0625 
Q 21.484375 6.890625 26.703125 6.890625 
Q 35.15625 6.890625 40.078125 11.328125 
Q 45.015625 15.765625 45.015625 23.390625 
Q 45.015625 31 40.078125 35.4375 
Q 35.15625 39.890625 26.703125 39.890625 
Q 22.75 39.890625 18.8125 39.015625 
Q 14.890625 38.140625 10.796875 36.28125 
z
" id="BitstreamVeraSans-Roman-35"/>
      </defs>
      <g transform="translate(109.46 355.63125)scale(0.12 -0.12)">
       <use xlink:href="#BitstreamVeraSans-Roman-35"/>
       <use x="63.623046875" xlink:href="#BitstreamVeraSans-Roman-30"/>
       <use x="127.24609375" xlink:href="#BitstreamVeraSans-Roman-30"/>
       <use x="190.869140625" xlink:href="#BitstreamVeraSans-Roman-30"/>
      </g>
     </g>
    </g>
    <g id="ytick_3">
     <g id="line2d_26">
      <g>
       <use style="stroke:#000000;stroke-width:0.5;" x="144.0" xlink:href="#m70186faf92" y="315.84"/>
      </g>
     </g>
     <g id="line2d_27">
      <g>
       <use style="stroke:#000000;stroke-width:0.5;" x="1036.8" xlink:href="#m2a14d4dde6" y="315.84"/>
      </g>
     </g>
     <g id="text_12">
      <!-- 10000 -->
      <g transform="translate(101.825 319.15125)scale(0.12 -0.12)">
       <use xlink:href="#BitstreamVeraSans-Roman-31"/>
       <use x="63.623046875" xlink:href="#BitstreamVeraSans-Roman-30"/>
       <use x="127.24609375" xlink:href="#BitstreamVeraSans-Roman-30"/>
       <use x="190.869140625" xlink:href="#BitstreamVeraSans-Roman-30"/>
       <use x="254.4921875" xlink:href="#BitstreamVeraSans-Roman-30"/>
      </g>
     </g>
    </g>
    <g id="ytick_4">
     <g id="line2d_28">
      <g>
       <use style="stroke:#000000;stroke-width:0.5;" x="144.0" xlink:href="#m70186faf92" y="279.36"/>
      </g>
     </g>
     <g id="line2d_29">
      <g>
       <use style="stroke:#000000;stroke-width:0.5;" x="1036.8" xlink:href="#m2a14d4dde6" y="279.36"/>
      </g>
     </g>
     <g id="text_13">
      <!-- 15000 -->
      <g transform="translate(101.825 282.67125)scale(0.12 -0.12)">
       <use xlink:href="#BitstreamVeraSans-Roman-31"/>
       <use x="63.623046875" xlink:href="#BitstreamVeraSans-Roman-35"/>
       <use x="127.24609375" xlink:href="#BitstreamVeraSans-Roman-30"/>
       <use x="190.869140625" xlink:href="#BitstreamVeraSans-Roman-30"/>
       <use x="254.4921875" xlink:href="#BitstreamVeraSans-Roman-30"/>
      </g>
     </g>
    </g>
    <g id="ytick_5">
     <g id="line2d_30">
      <g>
       <use style="stroke:#000000;stroke-width:0.5;" x="144.0" xlink:href="#m70186faf92" y="242.88"/>
      </g>
     </g>
     <g id="line2d_31">
      <g>
       <use style="stroke:#000000;stroke-width:0.5;" x="1036.8" xlink:href="#m2a14d4dde6" y="242.88"/>
      </g>
     </g>
     <g id="text_14">
      <!-- 20000 -->
      <g transform="translate(101.825 246.19125)scale(0.12 -0.12)">
       <use xlink:href="#BitstreamVeraSans-Roman-32"/>
       <use x="63.623046875" xlink:href="#BitstreamVeraSans-Roman-30"/>
       <use x="127.24609375" xlink:href="#BitstreamVeraSans-Roman-30"/>
       <use x="190.869140625" xlink:href="#BitstreamVeraSans-Roman-30"/>
       <use x="254.4921875" xlink:href="#BitstreamVeraSans-Roman-30"/>
      </g>
     </g>
    </g>
    <g id="ytick_6">
     <g id="line2d_32">
      <g>
       <use style="stroke:#000000;stroke-width:0.5;" x="144.0" xlink:href="#m70186faf92" y="206.4"/>
      </g>
     </g>
     <g id="line2d_33">
      <g>
       <use style="stroke:#000000;stroke-width:0.5;" x="1036.8" xlink:href="#m2a14d4dde6" y="206.4"/>
      </g>
     </g>
     <g id="text_15">
      <!-- 25000 -->
      <g transform="translate(101.825 209.71125)scale(0.12 -0.12)">
       <use xlink:href="#BitstreamVeraSans-Roman-32"/>
       <use x="63.623046875" xlink:href="#BitstreamVeraSans-Roman-35"/>
       <use x="127.24609375" xlink:href="#BitstreamVeraSans-Roman-30"/>
       <use x="190.869140625" xlink:href="#BitstreamVeraSans-Roman-30"/>
       <use x="254.4921875" xlink:href="#BitstreamVeraSans-Roman-30"/>
      </g>
     </g>
    </g>
    <g id="ytick_7">
     <g id="line2d_34">
      <g>
       <use style="stroke:#000000;stroke-width:0.5;" x="144.0" xlink:href="#m70186faf92" y="169.92"/>
      </g>
     </g>
     <g id="line2d_35">
      <g>
       <use style="stroke:#000000;stroke-width:0.5;" x="1036.8" xlink:href="#m2a14d4dde6" y="169.92"/>
      </g>
     </g>
     <g id="text_16">
      <!-- 30000 -->
      <g transform="translate(101.825 173.23125)scale(0.12 -0.12)">
       <use xlink:href="#BitstreamVeraSans-Roman-33"/>
       <use x="63.623046875" xlink:href="#BitstreamVeraSans-Roman-30"/>
       <use x="127.24609375" xlink:href="#BitstreamVeraSans-Roman-30"/>
       <use x="190.869140625" xlink:href="#BitstreamVeraSans-Roman-30"/>
       <use x="254.4921875" xlink:href="#BitstreamVeraSans-Roman-30"/>
      </g>
     </g>
    </g>
    <g id="ytick_8">
     <g id="line2d_36">
      <g>
       <use style="stroke:#000000;stroke-width:0.5;" x="144.0" xlink:href="#m70186faf92" y="133.44"/>
      </g>
     </g>
     <g id="line2d_37">
      <g>
       <use style="stroke:#000000;stroke-width:0.5;" x="1036.8" xlink:href="#m2a14d4dde6" y="133.44"/>
      </g>
     </g>
     <g id="text_17">
      <!-- 35000 -->
      <g transform="translate(101.825 136.75125)scale(0.12 -0.12)">
       <use xlink:href="#BitstreamVeraSans-Roman-33"/>
       <use x="63.623046875" xlink:href="#BitstreamVeraSans-Roman-35"/>
       <use x="127.24609375" xlink:href="#BitstreamVeraSans-Roman-30"/>
       <use x="190.869140625" xlink:href="#BitstreamVeraSans-Roman-30"/>
       <use x="254.4921875" xlink:href="#BitstreamVeraSans-Roman-30"/>
      </g>
     </g>
    </g>
    <g id="ytick_9">
     <g id="line2d_38">
      <g>
       <use style="stroke:#000000;stroke-width:0.5;" x="144.0" xlink:href="#m70186faf92" y="96.96"/>
      </g>
     </g>
     <g id="line2d_39">
      <g>
       <use style="stroke:#000000;stroke-width:0.5;" x="1036.8" xlink:href="#m2a14d4dde6" y="96.96"/>
      </g>
     </g>
     <g id="text_18">
      <!-- 40000 -->
      <g transform="translate(101.825 100.27125)scale(0.12 -0.12)">
       <use xlink:href="#BitstreamVeraSans-Roman-34"/>
       <use x="63.623046875" xlink:href="#BitstreamVeraSans-Roman-30"/>
       <use x="127.24609375" xlink:href="#BitstreamVeraSans-Roman-30"/>
       <use x="190.869140625" xlink:href="#BitstreamVeraSans-Roman-30"/>
       <use x="254.4921875" xlink:href="#BitstreamVeraSans-Roman-30"/>
      </g>
     </g>
    </g>
    <g id="ytick_10">
     <g id="line2d_40">
      <g>
       <use style="stroke:#000000;stroke-width:0.5;" x="144.0" xlink:href="#m70186faf92" y="60.48"/>
      </g>
     </g>
     <g id="line2d_41">
      <g>
       <use style="stroke:#000000;stroke-width:0.5;" x="1036.8" xlink:href="#m2a14d4dde6" y="60.48"/>
      </g>
     </g>
     <g id="text_19">
      <!-- 45000 -->
      <g transform="translate(101.825 63.79125)scale(0.12 -0.12)">
       <use xlink:href="#BitstreamVeraSans-Roman-34"/>
       <use x="63.623046875" xlink:href="#BitstreamVeraSans-Roman-35"/>
       <use x="127.24609375" xlink:href="#BitstreamVeraSans-Roman-30"/>
       <use x="190.869140625" xlink:href="#BitstreamVeraSans-Roman-30"/>
       <use x="254.4921875" xlink:href="#BitstreamVeraSans-Roman-30"/>
      </g>
     </g>
    </g>
    <g id="text_20">
     <!-- Mbits/sec -->
     <defs>
      <path d="M 25.390625 72.90625 
L 33.6875 72.90625 
L 8.296875 -9.28125 
L 0 -9.28125 
z
" id="BitstreamVeraSans-Roman-2f"/>
      <path d="M 44.28125 53.078125 
L 44.28125 44.578125 
Q 40.484375 46.53125 36.375 47.5 
Q 32.28125 48.484375 27.875 48.484375 
Q 21.1875 48.484375 17.84375 46.4375 
Q 14.5 44.390625 14.5 40.28125 
Q 14.5 37.15625 16.890625 35.375 
Q 19.28125 33.59375 26.515625 31.984375 
L 29.59375 31.296875 
Q 39.15625 29.25 43.1875 25.515625 
Q 47.21875 21.78125 47.21875 15.09375 
Q 47.21875 7.46875 41.1875 3.015625 
Q 35.15625 -1.421875 24.609375 -1.421875 
Q 20.21875 -1.421875 15.453125 -0.5625 
Q 10.6875 0.296875 5.421875 2 
L 5.421875 11.28125 
Q 10.40625 8.6875 15.234375 7.390625 
Q 20.0625 6.109375 24.8125 6.109375 
Q 31.15625 6.109375 34.5625 8.28125 
Q 37.984375 10.453125 37.984375 14.40625 
Q 37.984375 18.0625 35.515625 20.015625 
Q 33.0625 21.96875 24.703125 23.78125 
L 21.578125 24.515625 
Q 13.234375 26.265625 9.515625 29.90625 
Q 5.8125 33.546875 5.8125 39.890625 
Q 5.8125 47.609375 11.28125 51.796875 
Q 16.75 56 26.8125 56 
Q 31.78125 56 36.171875 55.265625 
Q 40.578125 54.546875 44.28125 53.078125 
" id="BitstreamVeraSans-Roman-73"/>
      <path d="M 48.6875 27.296875 
Q 48.6875 37.203125 44.609375 42.84375 
Q 40.53125 48.484375 33.40625 48.484375 
Q 26.265625 48.484375 22.1875 42.84375 
Q 18.109375 37.203125 18.109375 27.296875 
Q 18.109375 17.390625 22.1875 11.75 
Q 26.265625 6.109375 33.40625 6.109375 
Q 40.53125 6.109375 44.609375 11.75 
Q 48.6875 17.390625 48.6875 27.296875 
M 18.109375 46.390625 
Q 20.953125 51.265625 25.265625 53.625 
Q 29.59375 56 35.59375 56 
Q 45.5625 56 51.78125 48.09375 
Q 58.015625 40.1875 58.015625 27.296875 
Q 58.015625 14.40625 51.78125 6.484375 
Q 45.5625 -1.421875 35.59375 -1.421875 
Q 29.59375 -1.421875 25.265625 0.953125 
Q 20.953125 3.328125 18.109375 8.203125 
L 18.109375 0 
L 9.078125 0 
L 9.078125 75.984375 
L 18.109375 75.984375 
z
" id="BitstreamVeraSans-Roman-62"/>
     </defs>
     <g transform="translate(94.329375 252.9084375)rotate(-90.0)scale(0.12 -0.12)">
      <use xlink:href="#BitstreamVeraSans-Roman-4d"/>
      <use x="86.279296875" xlink:href="#BitstreamVeraSans-Roman-62"/>
      <use x="149.755859375" xlink:href="#BitstreamVeraSans-Roman-69"/>
      <use x="177.5390625" xlink:href="#BitstreamVeraSans-Roman-74"/>
      <use x="216.748046875" xlink:href="#BitstreamVeraSans-Roman-73"/>
      <use x="268.84765625" xlink:href="#BitstreamVeraSans-Roman-2f"/>
      <use x="302.5390625" xlink:href="#BitstreamVeraSans-Roman-73"/>
      <use x="354.638671875" xlink:href="#BitstreamVeraSans-Roman-65"/>
      <use x="416.162109375" xlink:href="#BitstreamVeraSans-Roman-63"/>
     </g>
    </g>
   </g>
   <g id="text_21">
    <!-- 20230217084729 -->
    <g transform="translate(526.266 55.48)scale(0.144 -0.144)">
     <use xlink:href="#BitstreamVeraSans-Roman-32"/>
     <use x="63.623046875" xlink:href="#BitstreamVeraSans-Roman-30"/>
     <use x="127.24609375" xlink:href="#BitstreamVeraSans-Roman-32"/>
     <use x="190.869140625" xlink:href="#BitstreamVeraSans-Roman-33"/>
     <use x="254.4921875" xlink:href="#BitstreamVeraSans-Roman-30"/>
     <use x="318.115234375" xlink:href="#BitstreamVeraSans-Roman-32"/>
     <use x="381.73828125" xlink:href="#BitstreamVeraSans-Roman-31"/>
     <use x="445.361328125" xlink:href="#BitstreamVeraSans-Roman-37"/>
     <use x="508.984375" xlink:href="#BitstreamVeraSans-Roman-30"/>
     <use x="572.607421875" xlink:href="#BitstreamVeraSans-Roman-38"/>
     <use x="636.23046875" xlink:href="#BitstreamVeraSans-Roman-34"/>
     <use x="699.853515625" xlink:href="#BitstreamVeraSans-Roman-37"/>
     <use x="763.4765625" xlink:href="#BitstreamVeraSans-Roman-32"/>
     <use x="827.099609375" xlink:href="#BitstreamVeraSans-Roman-39"/>
    </g>
   </g>
   <g id="legend_1">
    <g id="patch_7">
     <path d="M 72.232875 61.1082 
L 1108.567125 61.1082 
L 1108.567125 14.5152 
L 72.232875 14.5152 
z
" style="fill:#ffffff;stroke:#000000;stroke-linejoin:miter;"/>
    </g>
    <g id="line2d_42">
     <path d="M 82.312875 26.17695 
L 102.472875 26.17695 
" style="fill:none;stroke:#ff0000;stroke-linecap:square;stroke-width:1.5;"/>
    </g>
    <g id="line2d_43">
     <g>
      <use style="fill:#ff0000;stroke:#ff0000;stroke-width:0.5;" x="82.312875" xlink:href="#m9d8db7f6fa" y="26.17695"/>
      <use style="fill:#ff0000;stroke:#ff0000;stroke-width:0.5;" x="102.472875" xlink:href="#m9d8db7f6fa" y="26.17695"/>
     </g>
    </g>
    <g id="text_22">
     <!-- 1 iperf TCP. Same VM using Pod IP -->
     <defs>
      <path d="M 8.5 21.578125 
L 8.5 54.6875 
L 17.484375 54.6875 
L 17.484375 21.921875 
Q 17.484375 14.15625 20.5 10.265625 
Q 23.53125 6.390625 29.59375 6.390625 
Q 36.859375 6.390625 41.078125 11.03125 
Q 45.3125 15.671875 45.3125 23.6875 
L 45.3125 54.6875 
L 54.296875 54.6875 
L 54.296875 0 
L 45.3125 0 
L 45.3125 8.40625 
Q 42.046875 3.421875 37.71875 1 
Q 33.40625 -1.421875 27.6875 -1.421875 
Q 18.265625 -1.421875 13.375 4.4375 
Q 8.5 10.296875 8.5 21.578125 
" id="BitstreamVeraSans-Roman-75"/>
      <path d="M 10.6875 12.40625 
L 21 12.40625 
L 21 0 
L 10.6875 0 
z
" id="BitstreamVeraSans-Roman-2e"/>
      <path d="M 54.890625 33.015625 
L 54.890625 0 
L 45.90625 0 
L 45.90625 32.71875 
Q 45.90625 40.484375 42.875 44.328125 
Q 39.84375 48.1875 33.796875 48.1875 
Q 26.515625 48.1875 22.3125 43.546875 
Q 18.109375 38.921875 18.109375 30.90625 
L 18.109375 0 
L 9.078125 0 
L 9.078125 54.6875 
L 18.109375 54.6875 
L 18.109375 46.1875 
Q 21.34375 51.125 25.703125 53.5625 
Q 30.078125 56 35.796875 56 
Q 45.21875 56 50.046875 50.171875 
Q 54.890625 44.34375 54.890625 33.015625 
" id="BitstreamVeraSans-Roman-6e"/>
      <path d="M 52 44.1875 
Q 55.375 50.25 60.0625 53.125 
Q 64.75 56 71.09375 56 
Q 79.640625 56 84.28125 50.015625 
Q 88.921875 44.046875 88.921875 33.015625 
L 88.921875 0 
L 79.890625 0 
L 79.890625 32.71875 
Q 79.890625 40.578125 77.09375 44.375 
Q 74.3125 48.1875 68.609375 48.1875 
Q 61.625 48.1875 57.5625 43.546875 
Q 53.515625 38.921875 53.515625 30.90625 
L 53.515625 0 
L 44.484375 0 
L 44.484375 32.71875 
Q 44.484375 40.625 41.703125 44.40625 
Q 38.921875 48.1875 33.109375 48.1875 
Q 26.21875 48.1875 22.15625 43.53125 
Q 18.109375 38.875 18.109375 30.90625 
L 18.109375 0 
L 9.078125 0 
L 9.078125 54.6875 
L 18.109375 54.6875 
L 18.109375 46.1875 
Q 21.1875 51.21875 25.484375 53.609375 
Q 29.78125 56 35.6875 56 
Q 41.65625 56 45.828125 52.96875 
Q 50 49.953125 52 44.1875 
" id="BitstreamVeraSans-Roman-6d"/>
      <path d="M 64.40625 67.28125 
L 64.40625 56.890625 
Q 59.421875 61.53125 53.78125 63.8125 
Q 48.140625 66.109375 41.796875 66.109375 
Q 29.296875 66.109375 22.65625 58.46875 
Q 16.015625 50.828125 16.015625 36.375 
Q 16.015625 21.96875 22.65625 14.328125 
Q 29.296875 6.6875 41.796875 6.6875 
Q 48.140625 6.6875 53.78125 8.984375 
Q 59.421875 11.28125 64.40625 15.921875 
L 64.40625 5.609375 
Q 59.234375 2.09375 53.4375 0.328125 
Q 47.65625 -1.421875 41.21875 -1.421875 
Q 24.65625 -1.421875 15.125 8.703125 
Q 5.609375 18.84375 5.609375 36.375 
Q 5.609375 53.953125 15.125 64.078125 
Q 24.65625 74.21875 41.21875 74.21875 
Q 47.75 74.21875 53.53125 72.484375 
Q 59.328125 70.75 64.40625 67.28125 
" id="BitstreamVeraSans-Roman-43"/>
      <path d="M 9.8125 72.90625 
L 19.671875 72.90625 
L 19.671875 0 
L 9.8125 0 
z
" id="BitstreamVeraSans-Roman-49"/>
      <path d="M 28.609375 0 
L 0.78125 72.90625 
L 11.078125 72.90625 
L 34.1875 11.53125 
L 57.328125 72.90625 
L 67.578125 72.90625 
L 39.796875 0 
z
" id="BitstreamVeraSans-Roman-56"/>
      <path d="M 45.40625 46.390625 
L 45.40625 75.984375 
L 54.390625 75.984375 
L 54.390625 0 
L 45.40625 0 
L 45.40625 8.203125 
Q 42.578125 3.328125 38.25 0.953125 
Q 33.9375 -1.421875 27.875 -1.421875 
Q 17.96875 -1.421875 11.734375 6.484375 
Q 5.515625 14.40625 5.515625 27.296875 
Q 5.515625 40.1875 11.734375 48.09375 
Q 17.96875 56 27.875 56 
Q 33.9375 56 38.25 53.625 
Q 42.578125 51.265625 45.40625 46.390625 
M 14.796875 27.296875 
Q 14.796875 17.390625 18.875 11.75 
Q 22.953125 6.109375 30.078125 6.109375 
Q 37.203125 6.109375 41.296875 11.75 
Q 45.40625 17.390625 45.40625 27.296875 
Q 45.40625 37.203125 41.296875 42.84375 
Q 37.203125 48.484375 30.078125 48.484375 
Q 22.953125 48.484375 18.875 42.84375 
Q 14.796875 37.203125 14.796875 27.296875 
" id="BitstreamVeraSans-Roman-64"/>
      <path d="M -0.296875 72.90625 
L 61.375 72.90625 
L 61.375 64.59375 
L 35.5 64.59375 
L 35.5 0 
L 25.59375 0 
L 25.59375 64.59375 
L -0.296875 64.59375 
z
" id="BitstreamVeraSans-Roman-54"/>
      <path d="M 45.40625 27.984375 
Q 45.40625 37.75 41.375 43.109375 
Q 37.359375 48.484375 30.078125 48.484375 
Q 22.859375 48.484375 18.828125 43.109375 
Q 14.796875 37.75 14.796875 27.984375 
Q 14.796875 18.265625 18.828125 12.890625 
Q 22.859375 7.515625 30.078125 7.515625 
Q 37.359375 7.515625 41.375 12.890625 
Q 45.40625 18.265625 45.40625 27.984375 
M 54.390625 6.78125 
Q 54.390625 -7.171875 48.1875 -13.984375 
Q 42 -20.796875 29.203125 -20.796875 
Q 24.46875 -20.796875 20.265625 -20.09375 
Q 16.0625 -19.390625 12.109375 -17.921875 
L 12.109375 -9.1875 
Q 16.0625 -11.328125 19.921875 -12.34375 
Q 23.78125 -13.375 27.78125 -13.375 
Q 36.625 -13.375 41.015625 -8.765625 
Q 45.40625 -4.15625 45.40625 5.171875 
L 45.40625 9.625 
Q 42.625 4.78125 38.28125 2.390625 
Q 33.9375 0 27.875 0 
Q 17.828125 0 11.671875 7.65625 
Q 5.515625 15.328125 5.515625 27.984375 
Q 5.515625 40.671875 11.671875 48.328125 
Q 17.828125 56 27.875 56 
Q 33.9375 56 38.28125 53.609375 
Q 42.625 51.21875 45.40625 46.390625 
L 45.40625 54.6875 
L 54.390625 54.6875 
z
" id="BitstreamVeraSans-Roman-67"/>
      <path d="M 37.109375 75.984375 
L 37.109375 68.5 
L 28.515625 68.5 
Q 23.6875 68.5 21.796875 66.546875 
Q 19.921875 64.59375 19.921875 59.515625 
L 19.921875 54.6875 
L 34.71875 54.6875 
L 34.71875 47.703125 
L 19.921875 47.703125 
L 19.921875 0 
L 10.890625 0 
L 10.890625 47.703125 
L 2.296875 47.703125 
L 2.296875 54.6875 
L 10.890625 54.6875 
L 10.890625 58.5 
Q 10.890625 67.625 15.140625 71.796875 
Q 19.390625 75.984375 28.609375 75.984375 
z
" id="BitstreamVeraSans-Roman-66"/>
      <path d="M 18.109375 8.203125 
L 18.109375 -20.796875 
L 9.078125 -20.796875 
L 9.078125 54.6875 
L 18.109375 54.6875 
L 18.109375 46.390625 
Q 20.953125 51.265625 25.265625 53.625 
Q 29.59375 56 35.59375 56 
Q 45.5625 56 51.78125 48.09375 
Q 58.015625 40.1875 58.015625 27.296875 
Q 58.015625 14.40625 51.78125 6.484375 
Q 45.5625 -1.421875 35.59375 -1.421875 
Q 29.59375 -1.421875 25.265625 0.953125 
Q 20.953125 3.328125 18.109375 8.203125 
M 48.6875 27.296875 
Q 48.6875 37.203125 44.609375 42.84375 
Q 40.53125 48.484375 33.40625 48.484375 
Q 26.265625 48.484375 22.1875 42.84375 
Q 18.109375 37.203125 18.109375 27.296875 
Q 18.109375 17.390625 22.1875 11.75 
Q 26.265625 6.109375 33.40625 6.109375 
Q 40.53125 6.109375 44.609375 11.75 
Q 48.6875 17.390625 48.6875 27.296875 
" id="BitstreamVeraSans-Roman-70"/>
     </defs>
     <g transform="translate(118.312875 31.21695)scale(0.144 -0.144)">
      <use xlink:href="#BitstreamVeraSans-Roman-31"/>
      <use x="63.623046875" xlink:href="#BitstreamVeraSans-Roman-20"/>
      <use x="95.41015625" xlink:href="#BitstreamVeraSans-Roman-69"/>
      <use x="123.193359375" xlink:href="#BitstreamVeraSans-Roman-70"/>
      <use x="186.669921875" xlink:href="#BitstreamVeraSans-Roman-65"/>
      <use x="248.193359375" xlink:href="#BitstreamVeraSans-Roman-72"/>
      <use x="289.306640625" xlink:href="#BitstreamVeraSans-Roman-66"/>
      <use x="324.51171875" xlink:href="#BitstreamVeraSans-Roman-20"/>
      <use x="356.298828125" xlink:href="#BitstreamVeraSans-Roman-54"/>
      <use x="417.3046875" xlink:href="#BitstreamVeraSans-Roman-43"/>
      <use x="487.12890625" xlink:href="#BitstreamVeraSans-Roman-50"/>
      <use x="547.197265625" xlink:href="#BitstreamVeraSans-Roman-2e"/>
      <use x="578.984375" xlink:href="#BitstreamVeraSans-Roman-20"/>
      <use x="610.771484375" xlink:href="#BitstreamVeraSans-Roman-53"/>
      <use x="674.248046875" xlink:href="#BitstreamVeraSans-Roman-61"/>
      <use x="735.52734375" xlink:href="#BitstreamVeraSans-Roman-6d"/>
      <use x="832.939453125" xlink:href="#BitstreamVeraSans-Roman-65"/>
      <use x="894.462890625" xlink:href="#BitstreamVeraSans-Roman-20"/>
      <use x="926.25" xlink:href="#BitstreamVeraSans-Roman-56"/>
      <use x="994.658203125" xlink:href="#BitstreamVeraSans-Roman-4d"/>
      <use x="1080.9375" xlink:href="#BitstreamVeraSans-Roman-20"/>
      <use x="1112.72460938" xlink:href="#BitstreamVeraSans-Roman-75"/>
      <use x="1176.10351562" xlink:href="#BitstreamVeraSans-Roman-73"/>
      <use x="1228.203125" xlink:href="#BitstreamVeraSans-Roman-69"/>
      <use x="1255.98632812" xlink:href="#BitstreamVeraSans-Roman-6e"/>
      <use x="1319.36523438" xlink:href="#BitstreamVeraSans-Roman-67"/>
      <use x="1382.84179688" xlink:href="#BitstreamVeraSans-Roman-20"/>
      <use x="1414.62890625" xlink:href="#BitstreamVeraSans-Roman-50"/>
      <use x="1474.88476562" xlink:href="#BitstreamVeraSans-Roman-6f"/>
      <use x="1536.06640625" xlink:href="#BitstreamVeraSans-Roman-64"/>
      <use x="1599.54296875" xlink:href="#BitstreamVeraSans-Roman-20"/>
      <use x="1631.33007812" xlink:href="#BitstreamVeraSans-Roman-49"/>
      <use x="1660.82226562" xlink:href="#BitstreamVeraSans-Roman-50"/>
     </g>
    </g>
    <g id="line2d_44">
     <path d="M 82.312875 47.31345 
L 102.472875 47.31345 
" style="fill:none;stroke:#008000;stroke-linecap:square;stroke-width:1.5;"/>
    </g>
    <g id="line2d_45">
     <g>
      <use style="fill:#008000;stroke:#008000;stroke-width:0.5;" x="82.312875" xlink:href="#m0da43ce94d" y="47.31345"/>
      <use style="fill:#008000;stroke:#008000;stroke-width:0.5;" x="102.472875" xlink:href="#m0da43ce94d" y="47.31345"/>
     </g>
    </g>
    <g id="text_23">
     <!-- 2 iperf TCP. Same VM using Virtual IP -->
     <defs>
      <path d="M 9.421875 75.984375 
L 18.40625 75.984375 
L 18.40625 0 
L 9.421875 0 
z
" id="BitstreamVeraSans-Roman-6c"/>
     </defs>
     <g transform="translate(118.312875 52.35345)scale(0.144 -0.144)">
      <use xlink:href="#BitstreamVeraSans-Roman-32"/>
      <use x="63.623046875" xlink:href="#BitstreamVeraSans-Roman-20"/>
      <use x="95.41015625" xlink:href="#BitstreamVeraSans-Roman-69"/>
      <use x="123.193359375" xlink:href="#BitstreamVeraSans-Roman-70"/>
      <use x="186.669921875" xlink:href="#BitstreamVeraSans-Roman-65"/>
      <use x="248.193359375" xlink:href="#BitstreamVeraSans-Roman-72"/>
      <use x="289.306640625" xlink:href="#BitstreamVeraSans-Roman-66"/>
      <use x="324.51171875" xlink:href="#BitstreamVeraSans-Roman-20"/>
      <use x="356.298828125" xlink:href="#BitstreamVeraSans-Roman-54"/>
      <use x="417.3046875" xlink:href="#BitstreamVeraSans-Roman-43"/>
      <use x="487.12890625" xlink:href="#BitstreamVeraSans-Roman-50"/>
      <use x="547.197265625" xlink:href="#BitstreamVeraSans-Roman-2e"/>
      <use x="578.984375" xlink:href="#BitstreamVeraSans-Roman-20"/>
      <use x="610.771484375" xlink:href="#BitstreamVeraSans-Roman-53"/>
      <use x="674.248046875" xlink:href="#BitstreamVeraSans-Roman-61"/>
      <use x="735.52734375" xlink:href="#BitstreamVeraSans-Roman-6d"/>
      <use x="832.939453125" xlink:href="#BitstreamVeraSans-Roman-65"/>
      <use x="894.462890625" xlink:href="#BitstreamVeraSans-Roman-20"/>
      <use x="926.25" xlink:href="#BitstreamVeraSans-Roman-56"/>
      <use x="994.658203125" xlink:href="#BitstreamVeraSans-Roman-4d"/>
      <use x="1080.9375" xlink:href="#BitstreamVeraSans-Roman-20"/>
      <use x="1112.72460938" xlink:href="#BitstreamVeraSans-Roman-75"/>
      <use x="1176.10351562" xlink:href="#BitstreamVeraSans-Roman-73"/>
      <use x="1228.203125" xlink:href="#BitstreamVeraSans-Roman-69"/>
      <use x="1255.98632812" xlink:href="#BitstreamVeraSans-Roman-6e"/>
      <use x="1319.36523438" xlink:href="#BitstreamVeraSans-Roman-67"/>
      <use x="1382.84179688" xlink:href="#BitstreamVeraSans-Roman-20"/>
      <use x="1414.62890625" xlink:href="#BitstreamVeraSans-Roman-56"/>
      <use x="1483.00585938" xlink:href="#BitstreamVeraSans-Roman-69"/>
      <use x="1510.7890625" xlink:href="#BitstreamVeraSans-Roman-72"/>
      <use x="1551.90234375" xlink:href="#BitstreamVeraSans-Roman-74"/>
      <use x="1591.11132812" xlink:href="#BitstreamVeraSans-Roman-75"/>
      <use x="1654.49023438" xlink:href="#BitstreamVeraSans-Roman-61"/>
      <use x="1715.76953125" xlink:href="#BitstreamVeraSans-Roman-6c"/>
      <use x="1743.55273438" xlink:href="#BitstreamVeraSans-Roman-20"/>
      <use x="1775.33984375" xlink:href="#BitstreamVeraSans-Roman-49"/>
      <use x="1804.83203125" xlink:href="#BitstreamVeraSans-Roman-50"/>
     </g>
    </g>
    <g id="line2d_46">
     <path d="M 420.004125 26.17695 
L 440.164125 26.17695 
" style="fill:none;stroke:#0000ff;stroke-linecap:square;stroke-width:1.5;"/>
    </g>
    <g id="line2d_47">
     <g>
      <use style="fill:#0000ff;stroke:#0000ff;stroke-width:0.5;" x="420.004125" xlink:href="#m49ef484be7" y="26.17695"/>
      <use style="fill:#0000ff;stroke:#0000ff;stroke-width:0.5;" x="440.164125" xlink:href="#m49ef484be7" y="26.17695"/>
     </g>
    </g>
    <g id="text_24">
     <!-- 3 iperf TCP. Remote VM using Pod IP -->
     <defs>
      <path d="M 44.390625 34.1875 
Q 47.5625 33.109375 50.5625 29.59375 
Q 53.5625 26.078125 56.59375 19.921875 
L 66.609375 0 
L 56 0 
L 46.6875 18.703125 
Q 43.0625 26.03125 39.671875 28.421875 
Q 36.28125 30.8125 30.421875 30.8125 
L 19.671875 30.8125 
L 19.671875 0 
L 9.8125 0 
L 9.8125 72.90625 
L 32.078125 72.90625 
Q 44.578125 72.90625 50.734375 67.671875 
Q 56.890625 62.453125 56.890625 51.90625 
Q 56.890625 45.015625 53.6875 40.46875 
Q 50.484375 35.9375 44.390625 34.1875 
M 19.671875 64.796875 
L 19.671875 38.921875 
L 32.078125 38.921875 
Q 39.203125 38.921875 42.84375 42.21875 
Q 46.484375 45.515625 46.484375 51.90625 
Q 46.484375 58.296875 42.84375 61.546875 
Q 39.203125 64.796875 32.078125 64.796875 
z
" id="BitstreamVeraSans-Roman-52"/>
     </defs>
     <g transform="translate(456.004125 31.21695)scale(0.144 -0.144)">
      <use xlink:href="#BitstreamVeraSans-Roman-33"/>
      <use x="63.623046875" xlink:href="#BitstreamVeraSans-Roman-20"/>
      <use x="95.41015625" xlink:href="#BitstreamVeraSans-Roman-69"/>
      <use x="123.193359375" xlink:href="#BitstreamVeraSans-Roman-70"/>
      <use x="186.669921875" xlink:href="#BitstreamVeraSans-Roman-65"/>
      <use x="248.193359375" xlink:href="#BitstreamVeraSans-Roman-72"/>
      <use x="289.306640625" xlink:href="#BitstreamVeraSans-Roman-66"/>
      <use x="324.51171875" xlink:href="#BitstreamVeraSans-Roman-20"/>
      <use x="356.298828125" xlink:href="#BitstreamVeraSans-Roman-54"/>
      <use x="417.3046875" xlink:href="#BitstreamVeraSans-Roman-43"/>
      <use x="487.12890625" xlink:href="#BitstreamVeraSans-Roman-50"/>
      <use x="547.197265625" xlink:href="#BitstreamVeraSans-Roman-2e"/>
      <use x="578.984375" xlink:href="#BitstreamVeraSans-Roman-20"/>
      <use x="610.771484375" xlink:href="#BitstreamVeraSans-Roman-52"/>
      <use x="680.19140625" xlink:href="#BitstreamVeraSans-Roman-65"/>
      <use x="741.71484375" xlink:href="#BitstreamVeraSans-Roman-6d"/>
      <use x="839.126953125" xlink:href="#BitstreamVeraSans-Roman-6f"/>
      <use x="900.30859375" xlink:href="#BitstreamVeraSans-Roman-74"/>
      <use x="939.517578125" xlink:href="#BitstreamVeraSans-Roman-65"/>
      <use x="1001.04101562" xlink:href="#BitstreamVeraSans-Roman-20"/>
      <use x="1032.828125" xlink:href="#BitstreamVeraSans-Roman-56"/>
      <use x="1101.23632812" xlink:href="#BitstreamVeraSans-Roman-4d"/>
      <use x="1187.515625" xlink:href="#BitstreamVeraSans-Roman-20"/>
      <use x="1219.30273438" xlink:href="#BitstreamVeraSans-Roman-75"/>
      <use x="1282.68164062" xlink:href="#BitstreamVeraSans-Roman-73"/>
      <use x="1334.78125" xlink:href="#BitstreamVeraSans-Roman-69"/>
      <use x="1362.56445312" xlink:href="#BitstreamVeraSans-Roman-6e"/>
      <use x="1425.94335938" xlink:href="#BitstreamVeraSans-Roman-67"/>
      <use x="1489.41992188" xlink:href="#BitstreamVeraSans-Roman-20"/>
      <use x="1521.20703125" xlink:href="#BitstreamVeraSans-Roman-50"/>
      <use x="1581.46289062" xlink:href="#BitstreamVeraSans-Roman-6f"/>
      <use x="1642.64453125" xlink:href="#BitstreamVeraSans-Roman-64"/>
      <use x="1706.12109375" xlink:href="#BitstreamVeraSans-Roman-20"/>
      <use x="1737.90820312" xlink:href="#BitstreamVeraSans-Roman-49"/>
      <use x="1767.40039062" xlink:href="#BitstreamVeraSans-Roman-50"/>
     </g>
    </g>
    <g id="line2d_48">
     <path d="M 420.004125 47.31345 
L 440.164125 47.31345 
" style="fill:none;stroke:#00bfbf;stroke-linecap:square;stroke-width:1.5;"/>
    </g>
    <g id="line2d_49">
     <g>
      <use style="fill:#00bfbf;stroke:#00bfbf;stroke-width:0.5;" x="420.004125" xlink:href="#m6de32abd03" y="47.31345"/>
      <use style="fill:#00bfbf;stroke:#00bfbf;stroke-width:0.5;" x="440.164125" xlink:href="#m6de32abd03" y="47.31345"/>
     </g>
    </g>
    <g id="text_25">
     <!-- 4 iperf TCP. Remote VM using Virtual IP -->
     <g transform="translate(456.004125 52.35345)scale(0.144 -0.144)">
      <use xlink:href="#BitstreamVeraSans-Roman-34"/>
      <use x="63.623046875" xlink:href="#BitstreamVeraSans-Roman-20"/>
      <use x="95.41015625" xlink:href="#BitstreamVeraSans-Roman-69"/>
      <use x="123.193359375" xlink:href="#BitstreamVeraSans-Roman-70"/>
      <use x="186.669921875" xlink:href="#BitstreamVeraSans-Roman-65"/>
      <use x="248.193359375" xlink:href="#BitstreamVeraSans-Roman-72"/>
      <use x="289.306640625" xlink:href="#BitstreamVeraSans-Roman-66"/>
      <use x="324.51171875" xlink:href="#BitstreamVeraSans-Roman-20"/>
      <use x="356.298828125" xlink:href="#BitstreamVeraSans-Roman-54"/>
      <use x="417.3046875" xlink:href="#BitstreamVeraSans-Roman-43"/>
      <use x="487.12890625" xlink:href="#BitstreamVeraSans-Roman-50"/>
      <use x="547.197265625" xlink:href="#BitstreamVeraSans-Roman-2e"/>
      <use x="578.984375" xlink:href="#BitstreamVeraSans-Roman-20"/>
      <use x="610.771484375" xlink:href="#BitstreamVeraSans-Roman-52"/>
      <use x="680.19140625" xlink:href="#BitstreamVeraSans-Roman-65"/>
      <use x="741.71484375" xlink:href="#BitstreamVeraSans-Roman-6d"/>
      <use x="839.126953125" xlink:href="#BitstreamVeraSans-Roman-6f"/>
      <use x="900.30859375" xlink:href="#BitstreamVeraSans-Roman-74"/>
      <use x="939.517578125" xlink:href="#BitstreamVeraSans-Roman-65"/>
      <use x="1001.04101562" xlink:href="#BitstreamVeraSans-Roman-20"/>
      <use x="1032.828125" xlink:href="#BitstreamVeraSans-Roman-56"/>
      <use x="1101.23632812" xlink:href="#BitstreamVeraSans-Roman-4d"/>
      <use x="1187.515625" xlink:href="#BitstreamVeraSans-Roman-20"/>
      <use x="1219.30273438" xlink:href="#BitstreamVeraSans-Roman-75"/>
      <use x="1282.68164062" xlink:href="#BitstreamVeraSans-Roman-73"/>
      <use x="1334.78125" xlink:href="#BitstreamVeraSans-Roman-69"/>
      <use x="1362.56445312" xlink:href="#BitstreamVeraSans-Roman-6e"/>
      <use x="1425.94335938" xlink:href="#BitstreamVeraSans-Roman-67"/>
      <use x="1489.41992188" xlink:href="#BitstreamVeraSans-Roman-20"/>
      <use x="1521.20703125" xlink:href="#BitstreamVeraSans-Roman-56"/>
      <use x="1589.58398438" xlink:href="#BitstreamVeraSans-Roman-69"/>
      <use x="1617.3671875" xlink:href="#BitstreamVeraSans-Roman-72"/>
      <use x="1658.48046875" xlink:href="#BitstreamVeraSans-Roman-74"/>
      <use x="1697.68945312" xlink:href="#BitstreamVeraSans-Roman-75"/>
      <use x="1761.06835938" xlink:href="#BitstreamVeraSans-Roman-61"/>
      <use x="1822.34765625" xlink:href="#BitstreamVeraSans-Roman-6c"/>
      <use x="1850.13085938" xlink:href="#BitstreamVeraSans-Roman-20"/>
      <use x="1881.91796875" xlink:href="#BitstreamVeraSans-Roman-49"/>
      <use x="1911.41015625" xlink:href="#BitstreamVeraSans-Roman-50"/>
     </g>
    </g>
    <g id="line2d_50">
     <path d="M 773.042625 26.17695 
L 793.202625 26.17695 
" style="fill:none;stroke:#bf00bf;stroke-linecap:square;stroke-width:1.5;"/>
    </g>
    <g id="line2d_51">
     <g>
      <use style="fill:#bf00bf;stroke:#bf00bf;stroke-width:0.5;" x="773.042625" xlink:href="#m1b076cabfc" y="26.17695"/>
      <use style="fill:#bf00bf;stroke:#bf00bf;stroke-width:0.5;" x="793.202625" xlink:href="#m1b076cabfc" y="26.17695"/>
     </g>
    </g>
    <g id="text_26">
     <!-- 5 iperf TCP. Hairpin Pod to own Virtual IP -->
     <defs>
      <path d="M 4.203125 54.6875 
L 13.1875 54.6875 
L 24.421875 12.015625 
L 35.59375 54.6875 
L 46.1875 54.6875 
L 57.421875 12.015625 
L 68.609375 54.6875 
L 77.59375 54.6875 
L 63.28125 0 
L 52.6875 0 
L 40.921875 44.828125 
L 29.109375 0 
L 18.5 0 
z
" id="BitstreamVeraSans-Roman-77"/>
      <path d="M 9.8125 72.90625 
L 19.671875 72.90625 
L 19.671875 43.015625 
L 55.515625 43.015625 
L 55.515625 72.90625 
L 65.375 72.90625 
L 65.375 0 
L 55.515625 0 
L 55.515625 34.71875 
L 19.671875 34.71875 
L 19.671875 0 
L 9.8125 0 
z
" id="BitstreamVeraSans-Roman-48"/>
     </defs>
     <g transform="translate(809.042625 31.21695)scale(0.144 -0.144)">
      <use xlink:href="#BitstreamVeraSans-Roman-35"/>
      <use x="63.623046875" xlink:href="#BitstreamVeraSans-Roman-20"/>
      <use x="95.41015625" xlink:href="#BitstreamVeraSans-Roman-69"/>
      <use x="123.193359375" xlink:href="#BitstreamVeraSans-Roman-70"/>
      <use x="186.669921875" xlink:href="#BitstreamVeraSans-Roman-65"/>
      <use x="248.193359375" xlink:href="#BitstreamVeraSans-Roman-72"/>
      <use x="289.306640625" xlink:href="#BitstreamVeraSans-Roman-66"/>
      <use x="324.51171875" xlink:href="#BitstreamVeraSans-Roman-20"/>
      <use x="356.298828125" xlink:href="#BitstreamVeraSans-Roman-54"/>
      <use x="417.3046875" xlink:href="#BitstreamVeraSans-Roman-43"/>
      <use x="487.12890625" xlink:href="#BitstreamVeraSans-Roman-50"/>
      <use x="547.197265625" xlink:href="#BitstreamVeraSans-Roman-2e"/>
      <use x="578.984375" xlink:href="#BitstreamVeraSans-Roman-20"/>
      <use x="610.771484375" xlink:href="#BitstreamVeraSans-Roman-48"/>
      <use x="685.966796875" xlink:href="#BitstreamVeraSans-Roman-61"/>
      <use x="747.24609375" xlink:href="#BitstreamVeraSans-Roman-69"/>
      <use x="775.029296875" xlink:href="#BitstreamVeraSans-Roman-72"/>
      <use x="816.142578125" xlink:href="#BitstreamVeraSans-Roman-70"/>
      <use x="879.619140625" xlink:href="#BitstreamVeraSans-Roman-69"/>
      <use x="907.40234375" xlink:href="#BitstreamVeraSans-Roman-6e"/>
      <use x="970.78125" xlink:href="#BitstreamVeraSans-Roman-20"/>
      <use x="1002.56835938" xlink:href="#BitstreamVeraSans-Roman-50"/>
      <use x="1062.82421875" xlink:href="#BitstreamVeraSans-Roman-6f"/>
      <use x="1124.00585938" xlink:href="#BitstreamVeraSans-Roman-64"/>
      <use x="1187.48242188" xlink:href="#BitstreamVeraSans-Roman-20"/>
      <use x="1219.26953125" xlink:href="#BitstreamVeraSans-Roman-74"/>
      <use x="1258.47851562" xlink:href="#BitstreamVeraSans-Roman-6f"/>
      <use x="1319.66015625" xlink:href="#BitstreamVeraSans-Roman-20"/>
      <use x="1351.44726562" xlink:href="#BitstreamVeraSans-Roman-6f"/>
      <use x="1412.62890625" xlink:href="#BitstreamVeraSans-Roman-77"/>
      <use x="1494.41601562" xlink:href="#BitstreamVeraSans-Roman-6e"/>
      <use x="1557.79492188" xlink:href="#BitstreamVeraSans-Roman-20"/>
      <use x="1589.58203125" xlink:href="#BitstreamVeraSans-Roman-56"/>
      <use x="1657.95898438" xlink:href="#BitstreamVeraSans-Roman-69"/>
      <use x="1685.7421875" xlink:href="#BitstreamVeraSans-Roman-72"/>
      <use x="1726.85546875" xlink:href="#BitstreamVeraSans-Roman-74"/>
      <use x="1766.06445312" xlink:href="#BitstreamVeraSans-Roman-75"/>
      <use x="1829.44335938" xlink:href="#BitstreamVeraSans-Roman-61"/>
      <use x="1890.72265625" xlink:href="#BitstreamVeraSans-Roman-6c"/>
      <use x="1918.50585938" xlink:href="#BitstreamVeraSans-Roman-20"/>
      <use x="1950.29296875" xlink:href="#BitstreamVeraSans-Roman-49"/>
      <use x="1979.78515625" xlink:href="#BitstreamVeraSans-Roman-50"/>
     </g>
    </g>
   </g>
  </g>
 </g>
 <defs>
  <clipPath id="pfbfb3eaf8c">
   <rect height="328.32" width="892.8" x="144.0" y="60.48"/>
  </clipPath>
 </defs>
</svg>
